<?xml version="1.0" encoding="UTF-8"?>
<svg id="logo" xmlns="http://www.w3.org/2000/svg" xmlns:xlink="http://www.w3.org/1999/xlink" viewBox="0 0 4800 1024">
  <defs>
    <style>
      .cls-1 {
        fill: #fff;
      }

      .cls-2 {
        mask: url(#mask);
      }

      .cls-3 {
        stroke-width: 125px;
      }

      .cls-3, .cls-4, .cls-5 {
        stroke: #fff;
      }

      .cls-3, .cls-4, .cls-5, .cls-6 {
        fill: none;
        stroke-miterlimit: 10;
      }

      .cls-4 {
        stroke-width: 60px;
      }

      .cls-5 {
        stroke-width: 95px;
      }

      .cls-6 {
        stroke: #000;
        stroke-width: 10px;
      }

      .cls-7 {
        filter: url(#luminosity-noclip);
      }
    </style>
    <filter id="luminosity-noclip" x="4109.05" y="375.71" width="95" height="416.04" color-interpolation-filters="sRGB" filterUnits="userSpaceOnUse">
      <feFlood flood-color="#fff" result="bg"/>
      <feBlend in="SourceGraphic" in2="bg"/>
    </filter>
    <mask id="mask" x="4109.05" y="375.71" width="95" height="416.04" maskUnits="userSpaceOnUse">
      <g class="cls-7">
        <line class="cls-6" x1="4156.55" y1="376.75" x2="4156.55" y2="791.75"/>
      </g>
    </mask>
  </defs>
  <g id="ume">
    <g id="bl">
      <g id="text_lyc">
        <g>
          <path class="cls-1" d="M257.81,280h-68.6v-79.2h68.6v-122.4h15.88v593.1l-85.05,135v-112.5l69.17-109.8v-304.2ZM302.04,200.8h149.68l43.66,40.5v510.3l-43.66,40.5h-69.74v-79.2h56.13l41.39-37.8v-357.3l-41.39-37.8h-136.07v350.1l-15.88,25.2V78.4h15.88v122.4ZM587.22,385.3h-15.88v-161.1l-63.5-55.8v-91.8l79.38,69.3v239.4ZM523.72,725.5l-15.88,14.4V252.1l15.88,15.3v458.1ZM615.57,385.3h-15.88v-227.7l15.88,14.4v213.3Z"/>
          <path class="cls-1" d="M811.17,83.8h15.88v708.29h-15.88V241.3h-55.56v-79.2h55.56v-78.3ZM855.4,162.1h329.41v79.2h-329.41v550.8h-15.88V83.8h15.88v78.3ZM1145.69,498.7h-15.88v-72h-208.65v-79.2h224.52v151.2ZM921.17,709.3v-120.6h15.88v135l-15.88-14.4ZM965.39,657.1l61.23,55.8h145.14v79.2h-158.75l-63.5-56.7v-146.7h15.88v68.4ZM1174.04,498.7h-15.88v-132.3l15.88,25.2v107.1Z"/>
          <path class="cls-1" d="M1751.78,205.3h-59.53l-244.36,225v225.9l60.67,55.8h177.46v79.2h-191.07l-62.93-56.7v-381.6l160.45-147.6h-269.88v-79.2h429.2v79.2ZM1403.66,708.4v-329.4l15.88-14.4v358.2l-15.88-14.4Z"/>
          <path class="cls-1" d="M1900.33,801.09v-97.2l323.74-375.3v-140.4h-306.73v-79.2h322.61v298.8l-93.55,108.9,161.59,187.2v97.2l-202.41-235.8-205.24,235.8ZM2268.29,375.4l-15.88,18.9V109h15.88v266.4Z"/>
          <path class="cls-1" d="M2525.69,792.09V82h15.88v710.09h-15.88ZM2569.92,333.1l269.31,72v81l-269.31-71.1v377.1h-15.88V82h15.88v251.1Z"/>
        </g>
      </g>
      <g id="text_prim">
        <g>
          <g id="shita">
            <rect class="cls-1" x="3945.25" y="522.45" width="90" height="28.16"/>
            <g>
              <path class="cls-1" d="M3038.11,674.77v-28.16h19.98l13.63-13.44v-67.84l-13.63-13.76h-41.64v123.2h-42.39l-14.57-14.4v-.14l-9.34-9.14v-104l9.34-9.14v-.14l14.57-14.4h27.82v-40.96h-51.73v-28.16h51.73v-31.36h14.57v31.36h27.82v28.16h-27.82v40.96h46.12l14.38,14.4v.14l9.34,9.14v104l-9.34,9.14v.14l-14.38,14.4h-24.46ZM2964.72,565.33v67.84l13.63,13.44h23.53v-95.04h-23.53l-13.63,13.76ZM3071.72,498.45v-19.2l-16.99-16.64v-32.64l26.33,26.16v-.24l5.23,5.12v37.44h-14.57Z"/>
              <path class="cls-1" d="M3232.5,659.41l-63.68-188.8h-30.44v159.36h-28.57v-28.16h14.01v-159.36h54.53l63.49,188.8h13.63v28.16h-22.97ZM3230.64,498.13l-10.46-38.4h10.64l10.46,38.4h-10.64ZM3211.4,498.13l-10.46-38.4h10.46l10.64,38.4h-10.64Z"/>
              <polygon class="cls-1" points="3365.84 674.77 3354.07 662.93 3354.07 662.79 3344.74 653.65 3344.74 530.13 3326.06 530.13 3296.75 580.37 3296.75 674.77 3282.18 674.77 3282.18 422.93 3296.75 422.93 3296.75 540.37 3319.34 501.97 3351.46 501.97 3359.3 515.41 3359.3 635.73 3370.32 646.61 3385.63 646.61 3396.65 635.73 3396.65 511.89 3411.21 511.89 3411.21 653.65 3401.88 662.79 3401.88 662.93 3389.93 674.77 3365.84 674.77"/>
              <polygon class="cls-1" points="3478.82 674.77 3458.09 654.61 3458.09 654.47 3448.75 645.33 3448.75 581.33 3458.09 572.19 3458.09 572.05 3478.82 551.89 3539.51 551.89 3539.51 525.01 3445.95 525.01 3445.95 496.85 3539.51 496.85 3539.51 474.13 3445.95 474.13 3445.95 445.97 3539.51 445.97 3539.51 422.93 3554.07 422.93 3554.07 445.97 3576.11 445.97 3576.11 474.13 3554.07 474.13 3554.07 496.85 3576.11 496.85 3576.11 525.01 3554.07 525.01 3554.07 553.49 3563.6 563.09 3563.6 595.41 3548.01 580.05 3483.3 580.05 3463.32 599.89 3463.32 626.77 3483.3 646.61 3542.87 646.61 3561.54 628.05 3561.54 660.69 3547.35 674.77 3478.82 674.77"/>
              <path class="cls-1" d="M3643.53,674.77l-14.57-14.4v-.14l-9.34-9.14v-65.28l9.34-9.14v-.14l14.57-14.08h31.56v-104.32h14.57v29.76h40.9v28.16h-40.9v46.4h26.33l14.57,14.08v32.64l-18.86-18.56h-22.04v68.48l-9.15,15.68h-36.97ZM3634.19,604.05v29.12l13.82,13.44h27.08v-56h-27.08l-13.82,13.44Z"/>
              <path class="cls-1" d="M3811.78,675.73v-28.16h56.58l20.17-19.84v-88l-20.17-19.84h-89.63v-28.16h94.12l20.92,20.16v.14l9.34,9.14v125.12l-9.34,9.14v.14l-20.92,20.16h-61.06ZM3863.13,472.53v-16h-59.38v-28.16h64.8l9.15,15.68v28.48h-14.57Z"/>
            </g>
          </g>
          <g id="ue">
            <g>
              <polygon class="cls-1" points="2965.25 353.78 2965.25 146.74 2930.32 146.74 2930.32 124.98 2983.79 124.98 2983.79 353.78 2965.25 353.78"/>
              <polygon class="cls-1" points="3053.42 353.78 3021.58 329.28 3021.58 329.46 3014.92 324.02 3014.92 154.42 3021.58 149.3 3021.58 149.48 3053.42 124.98 3109.98 124.98 3141.59 149.52 3141.59 149.3 3148.25 154.42 3148.25 197.3 3129.71 197.3 3129.71 172.98 3104.28 153.14 3059.12 153.14 3033.46 172.98 3033.46 305.46 3059.12 325.62 3104.28 325.62 3129.71 305.46 3129.71 277.94 3148.25 277.94 3148.25 324.02 3141.59 329.46 3141.59 329.24 3109.98 353.78 3053.42 353.78"/>
              <rect class="cls-1" x="3179.62" y="124.98" width="18.54" height="228.8"/>
              <path class="cls-1" d="M3229.53,353.78v-183.04h18.54v183.04h-18.54ZM3229.53,150.26v-25.28h18.54v25.28h-18.54Z"/>
              <polygon class="cls-1" points="3309.62 353.78 3291.32 339.38 3291.32 339.25 3279.44 330.1 3279.44 194.42 3291.32 185.28 3291.32 185.14 3309.62 170.74 3355.96 170.74 3374.5 185.14 3374.5 185.28 3386.38 194.42 3386.38 232.5 3367.84 232.5 3367.84 212.34 3350.49 198.9 3315.32 198.9 3297.97 212.34 3297.97 312.18 3315.32 325.62 3350.49 325.62 3367.84 312.18 3367.84 289.46 3386.38 289.46 3386.38 330.1 3374.5 339.25 3374.5 339.38 3355.96 353.78 3309.62 353.78"/>
              <polygon class="cls-1" points="3505.69 353.78 3461.24 249.78 3437 268.66 3437 353.78 3418.47 353.78 3418.47 124.98 3437 124.98 3437 236.02 3506.4 181.94 3506.4 170.74 3524.94 170.74 3524.94 200.18 3513.05 209.32 3513.05 209.46 3479.31 235.7 3529.93 353.78 3505.69 353.78"/>
              <path class="cls-1" d="M3603.46,362.87l-20.02-20.16v-.14l-8.94-9.14v-117.12l8.94-9.14v-.14l50.78-52.48h-85.1v-28.16h135.34v28.16h-18.77l-77.24,80v80.32l19.31,19.84h55.78v28.16h-60.07ZM3683.2,218.23l-10.19-38.4h10.19l10.01,38.4h-10.01ZM3666.4,218.23l-10.01-38.4h10.19l10.01,38.4h-10.19Z"/>
            </g>
            <rect class="cls-1" x="2813.62" y="224.82" width="90" height="28.16"/>
          </g>
        </g>
      </g>
      <g id="katate">
        <g id="katate-2" data-name="katate">
          <line id="ude" class="cls-3" x1="82.5" y1="915.87" x2="4717.5" y2="915.87"/>
          <g id="hira">
            <line class="cls-4" x1="4687.53" y1="897.71" x2="4687.53" y2="317.71"/>
            <line class="cls-4" x1="4308.65" y1="649.27" x2="4308.65" y2="107.6"/>
            <line class="cls-4" x1="4434.94" y1="649.27" x2="4434.94" y2="49.27"/>
            <line class="cls-4" x1="4561.24" y1="649.27" x2="4561.24" y2="132.6"/>
            <g class="cls-2">
              <line class="cls-5" x1="4156.55" y1="790.71" x2="4156.55" y2="375.71"/>
            </g>
          </g>
        </g>
      </g>
    </g>
  </g>
</svg>