<?xml version="1.0" encoding="UTF-8"?>
<svg id="_レイヤー_1" data-name="レイヤー_1" xmlns="http://www.w3.org/2000/svg" version="1.1" viewBox="0 0 980.2 1118.1">
  <!-- Generator: Adobe Illustrator 30.5.1, SVG Export Plug-In . SVG Version: 2.1.4 Build 3)  -->
  <defs>
    <style>
      .st0 {
        stroke-linecap: round;
      }

      .st0, .st1, .st2, .st3 {
        stroke-linejoin: round;
      }

      .st0, .st1, .st2, .st4 {
        fill: none;
      }

      .st0, .st2, .st3 {
        stroke: #1e293b;
        stroke-width: 1.1px;
      }

      .st1 {
        stroke: #94a3b8;
        stroke-width: .7px;
      }

      .st3, .st5 {
        fill-opacity: 0;
      }

      .st6 {
        fill: #64748b;
      }

      .st7 {
        fill: #fff;
        font-family: Arial-BoldMT, Arial;
        font-size: 24px;
        font-weight: 700;
        isolation: isolate;
      }

      .st4 {
        stroke: #cbd5e1;
        stroke-dasharray: 4 3;
      }
    </style>
  </defs>
  <path class="st1" d="M360,635.3l4.2,3.9-2,14.4,2.3,8.5h3.6c0,0,3.8,5.8,3.8,5.8M371.9,667.8l1.6,3M373.5,670.8l-1.2,1.9-5-3-3.5,3-4.5-1.3-1.2-2.9M358.1,668.5l-2.5-6.9-3.5-1.6.6-2.6-3.4,3.3-8.1-7.5M341.2,653.3l.9-4.8-9.5-2.5-1.5-5.2-4.2,1.4-6.8-4.3.5-5.5h5.4l-.2-5.9-.4-1.9-5.3,1.5-3.4-4.2.8-4.1M572.1,543l1.5,13.1-3.5,1.4,1.9,9.9-3.2,6.7-10.3,1.5-3.1,4.5-2.8-.6-1.3,4.3-6.3,2.4M545,586.3l-1.2-.5M89.5,743.3l11.1-.6,6.3,4.7,6-2.4v5.4l-7.7,5.7-.8,5.8M543.8,585.8l-1-3.5-8.3-.3-4.6-5.6,5.4-12.4-7.3-3.3,3.1-16.2M97.3,772.2l-5.6-1-6.9-5.5v-5.2c0,0-5.7-1-5.7-1l-2.8-6.1,1.5-2.9M143.6,734.8l-.7,6.4-6.6-.8-6.5,4.1-2.8,5.8,1.6,4.3-2,1.7,2.9,2.8-2.3,4.7M261.3,712.5l-.9,7.4M508.5,632.8l-11.1,2.5-5.7-4.6-1.2,13.6-4.9,1.1-3-7.5-5.6-1.2,1-10.6-2.3-7.5M475.7,618.5l-1.9-4,2.6-2.8-2.3-1.9,8.8-10.4,3.9,4.2,6.5-1.1,1.3,2.9,5.1-2.4M260.4,719.8l-22,5-8.5,17.7-9.8,1.1,4.4,8-5,2.5-5,8-3.2-2.6,3.4,11.6-1.8,2.7M390.5,643.3l1.9,3.3-4.3,14.8-5.4,2.6-6.6-2.5-.7,4.8-3.5,1.6M150.3,779.2l-3.5.9-7,13.3-4.1,1.7v6.2l4.4,6.2-3.3,4.3,3.1,5.1-4.5-.9-2.7,3.3-11.1.8M121.6,820l-5.1-4.8-7.4,4.1-4.5-3M553.5,412l9.1-.9,4.3,5.2,9.9,1.4,8.8,8.4M107.1,769.5h4.7c0-.1-.8-2.6-.8-2.6l3.7-3.6,4.1.3.9-3.5,7.5,3.8M127.2,763.8l7.1,4.5.2-8.9h5.6l7.2,11.6-.5,4.8,3.5,3.3M543.8,585.8l-8.9,1-5.4-3.8-1.8,1.5-9.1-3.2-4.1,9.1-13.6,5.4-1.9,2.9M603.7,485.9l-3.6.3v5.7c-.1,0-3.8-.8-3.8-.8l.9,2.2-4.7-1.9-1.6-5.8h-8.3l-3.6-4.4h-6M573,481v-5l6.6-1.7,2.4-11,7-11.2-3.8-10.7,2.9-.4,2.1-7.7-4.6-7.3M585.6,426l4.3.3,6.4-4.6M596.3,421.8l10,5h7.2c0-.1-1.6,3.2-1.6,3.2l6.1,4.6,3.6-4.6,6,2.5,2.5-13.1,6.7,1.6M573,481l-.9,8.4,1.8,1.5-2.9,3.8-5.7.7-3.1-2.7-3.3,1.1-2.3-4.1-5.9,1.6-6-2.7M354.4,691.2l3.7,8.9-3.8.6-4.9,6.8,4.4,6.7-1.9,4.1.9,2.2,9.1-2,2.2,1.8M364.1,720.3l2.3,6.2,5,2.4M328,695.3l3,2.2,23.4-6.4M445.8,575l3.2,5-4.7,9.5,2.8,3.9-.9,3.6-12.8,11.5,6.6,3.5,3.9,6.1-1.2,3.1,5.3,5.1-1.9,3.6,2,2.6-2.9.2,1.4,3.8-2,2.6M371,712.5l.4,2.4-4.8,2.8M366.6,717.8l-.2-2.6,4.6-2.6M406.5,592.8l4.7-9.6-3-2.9M408.2,580.3l3.8-4,3.6,1.2,1.3,4.2,8.8-10.7,2.2,1.8,4.8-2.1.5,2.2,3.3-2.1,9.3,4.2M639.1,330.1l-6.4,6.2-4.8-1.5-4.4,2.8-1.5-2.7-14.4,9.7-2.8-1.9M384.2,617.8l4.1-7.8,6.4,2.4.9-2.2,12.5-.6,2-3.4-5-8,1.4-5.3M365.3,718.3l-.3,2.8M365,721l.3-2.8M358.1,668.5l-3.7,9.8,1.6,7.1-1.6,5.7M342.7,673.5l2.6-2.3-1.9-10.1,2.4-1.2-5.7-2-.8-4.1,1.9-.5M445.8,575l5.5-7.6-.7-2.6,2.9-1.5.6-10.5M454.1,552.8l5.4-5.9-.5-2.8,7,.7-.6,4.4,2.4,1.7,7.6-4.2,3.5,1.4,5-8.9,6.1-2,3,2.5v4.4c.1,0,5.1,3.7,5.1,3.7v6.6M167.5,674.2l1.6,6.1-2.8,4.2,1.5,3.9,4.5-.2-1.4,3.5,2.6,4.1,4.7-2,1.9,1.9,1.8-7.1,3.3-2.1M176.6,784l-1.8.6-1-5.4-12.5,4.2-4.1-4.6-5.1,2-1.8-1.7M457.6,643.5l14.4-9.1v-10.6l3.7-5.2M600,612.8l-16.1-12.4-.5,3-2-1.3-14.4,5-10.1-5.7-7.8-8.8M549.1,592.5h-2.2c0,.1-1.9-6.3-1.9-6.3M364.1,720.3l.9.8M365.3,718.3l1.3-.5M371,712.5l4.8-.8.6-3.3.6-13.4-2.9-4.4,7.6-5.5-3.5-4-5-1.2.3-9.1M240.8,624l-2.2,1.5,5.9,6.9-.6,8-7.4,2.7,1.9,2.9-2.7,5.5M197.1,706.3h-.3M604.8,342.8l-4.5,4.7.9,18.4-4.6.5,3.1,4.3-3.4,3.7,2.2,5.2-7.7,14.3,7.1,14.5-2.7,2.4,2.7,5.1-1.6,5.9M556.7,331.5l4,.6,2.2-3.1,1.9,2h10.7c0,0,2.5-3.1,2.5-3.1l8.2,5.6,1.3-2.5,3.1,2,10.7-6.7-.9,4.6,5.9.7-1.5,11.1M290.9,738.7l-5.4-.7-.9-6.8-5.5-.6-1.1-7.7-5.7,2.2-11.9-5.2M250.3,685.8l-3.2-18.8-4-5.5,1.4-6.1-2.5-2.9M242,652.5l1-2.4,5.7-1.3-.7-3.4h6.1c0,0-1-2.7-1-2.7l2.9-1.6,1.4-5.1,7.1,1.4,4.6,4.1,8.1-5.9-.2,2.6,5.9,1.3,1.7,6.5,10.9-4.1M235.7,651.5l6.3,1M261.3,712.5l-3.8-1.9M193.6,701.2l-4.7-1.5-3.7-13.2M297.2,701.3l-1,2.9-11.6-1.2-8.6,6-2.4-2.4-4.1.6-8.2,5.3M185.2,686.5l-1.4-2,4.2-4.6.2-7.2,5.2-5.7,7.4,1.6,1.7-2.4,4.9,1.4,8.2-3-3.7-3.2,5.6-3.3,5.7-8.2,12.5,1.6M553.7,618.8l2.2-3.5-1.2-4.8M554.7,610.5l.3-5-5.9-13M448.1,540.3l3.5,2.1,2.5,10.5M408.2,580.3l-.3-19.4,1.9-2.3-1.7-3,3.1-2.9,1.4-8.6,7.9-2.7M509.8,606.3l3.8-2.5,12.8,3.5,4.5,4.2,7.2-2.5.3,3.1,10.4-3.6,5.9,2M549.9,625.3l-12.5-6.8-3.7,1.9,2.8,2.1-1.9,4.2-3.2-4.8-7.5-1.2-5.1-3.8M406.5,592.8l-4.3,1-5.3-5.1-9.5-.8-5-7.5M121.6,820l-.7,2.4,4.5,6.1,5.3,3.4-1.3,4.6,4.8,1.4,3.1,8.1,6.4.5-1.3,9.1M444.6,639.2l.7,5.2,5-2,7.3,1.1M457.6,643.5l-9.3,18.6-7.2,4.6-.2,8M402.7,648l.2-6.1,4.3-7.4,7.2-.5,2.3-2.5,5.3,7.5,4.7,2.2,5.9-2.2,5.8,4,6.2-3.8"/>
  <path class="st2" d="M317.5,617.8l2.6.7,14.1-7.7,4.1,4.9-5.4,9.1,2.6-3.7-.3,3.8,4.1,1-.4,3.8,3.6-2.3-2.6-.7v-2.8l5.6-2.9,1.1,2.6M343.7,616.7h0M346.2,621.5h0M339.6,627.3h0M81.1,736.5v-1.7,1.7M82.6,736.3h0M80,736.8h0M76.1,737.8h0M81.7,739h0M104.4,761.8l-5.2-3.5-5.8,4.4,3.9,9.4M77.8,750.5l2.9,2.7.7-6.5-4.1-2.5,1.2-1.8,2.5,1.8-.8-5.7,1.5,2.1,2.5-2,1.6,5.3,3.7-.6M86.1,740h0M87.1,743.2h0M81,747.3h0M79.8,751.8h0M97.8,772.5h0M104.6,816.3l10.1-14.8-1.6-5.7,5.7-5.5-9.5,1.5,7-6,.3-4.5-8.1-6.8-1.4-5.1M107.5,795.2l-1.3-2.2,2.5-2.1-1.2,4.3M110.6,793.5l1-1.6-1,1.6M103.7,792.3h0M108.8,792.5h0M109.6,795.7l.4-2.7-.4,2.7M105.6,793.3h0M109.1,794h0M92.6,795h0M104.3,803l-5.6,1.1-1.2-2.5-.2,5.9-2.2-.6-2.8,5.9-5.2,1.9.2-4.9,3.6-.9-4.3-1.7,2.3-11.6,7.5-.5.7,5.5,5.4-3.8,6.8-.8-2.7,7.6-2.3-.6M106.1,795.3h0M107.4,795.7h0M96.8,795.7h0M106.6,795.8h0M108.3,796h0M108.1,796.2h0M105.3,796.3h0M107.8,796.5h0M110.7,798.8h0M98.4,803.3h0M98.6,803.5h0M107.4,805.2l-.3-1.7.3,1.7M103.1,804.2h0M106.8,804h0M103.6,804.3h0M102.7,805h0M98.4,805.3h0M101.9,805.2h0M104,805.5h0M102.2,806.8l1.5-.9-1.5.9M104.6,806.2h0M101.9,808.7l3.4-2.4-3.4,2.4M101.8,807.7h0M94,811h0M86.3,814.5h0M90.9,814.8h0M104.7,814.8h0M89.8,817l-.9-2,.9,2M86.4,815.8h0M89.9,816h0M90.1,816.7h0M89.8,817h0M86.4,817.7h0M292.1,681l1.6.2-1.3,7.2-2.8-.8.9-1.8-3.1,3.7v-3.7c-.1,0-4.2.5-4.2.5l1.4-3.4,7.5-1.9M283.9,683.5h0M283.3,683.5h0M275.1,684.3h0M277.6,684.2l-.7.6M275.2,684.5h0M280.2,686.8l-1.7-1.7h2.8c0-.1-1.1,1.7-1.1,1.7M275.5,685.3h0M276,685.8h0M282,686.2h0M275.1,686h0M276.1,687.8l-1.1-2,1.1,2M276.3,686.2h0M274.5,686.3h0M285.2,686.5h0M276.6,686.8h0M274.5,687.2h0M276.7,688.2h0M279.1,689.3h0M267.3,689.5h0M282.3,689.3h0M272.9,689.2h-.3M266,689.7h0M281.3,690.2h0M282.3,689.8h0M282.9,689.8h0M260.7,691.3l-.7-1.6.7,1.6M278.3,691.5l.8-1.7-.8,1.7M267.5,690h0M266,690.2h0M265.3,692l1.1-1.6-1.1,1.6M262.3,693l.5-2.9-.5,2.9M257.5,710.5l2.4-8.4-4.3-4.1,5.6,2.3,10.4-9.2,8,2.2,3.4-3,1.2,4.1,2.2-2.4,2.5,4.9,8.3,4.3M284.6,690.8h0M272.9,690.8h0M268.1,691.2h0M268.5,691h0M260,691.8h0M265.9,692.8h0M258.7,694.3h0M259.7,694h0M261.2,695.7h0M258.7,698.5l1.4-1.5-1.4,1.5M261.3,697.8h0M259,702h0M259.1,702.2h0M250.8,704.3h0M254.3,706h0M440.9,674.7l-22,5.5,2.7-4.9,2.3,1.5,7.6-5.4,1.1,3,1.1-5.9-5.4-2.5-1.7,3.3-7.2-.7-3.7-2.6,1.5-7.8-3.1,10.8,2.9,4.1-2.6-.3-3.8-3.3,1.1-4.2-2-2.5,3.4-12.3-5.9,4.1M409.3,656h0M409.5,658.8h0M409.1,665l-.3-2.3.3,2.3M432.6,667.2h0M432.6,668.3h0M428.9,668.2h0M422.7,669.5h0M433.2,671.2h0M420.4,672.2h0M434.2,671.8h0M429.9,672.5h0M418.1,673h0M418.3,675h0M636.8,421l2.1,6.8-4.4-3.1,1,5-4.1,2.9,2,5.5-1.6-1.7-3.8,2.6v2l4,.3-3.4,3.6,1.8,2.8,1.7-1.1.2,3.7-3.1-2,1.9,4.4-3.1.4,1.2,2.9,3.2-.4-2.6,1.5,2.3,2.1-.4,4.1-5.5-7.9-6.7-1.1-5,3.4.9,2.7-2.2-3.5-3.2.5-1.9,3,2.9,1.7-4.1,1.2,2.2.4-5.6,10.7.2,11.5M636.5,429.5v-3.4c0,0,0,3.4,0,3.4M631.1,446.5h0M631.8,453.3l-.6-1.7.6,1.7M635,455.9h0M635.3,456.5h0M627,457h0M610.3,457.6h0M611,457.8h0M610.6,457.8h0M614.5,458.4h0M612.8,458.6h0M612.3,458.9h0M612.8,458.6h0M612.8,460h0M612.2,459.8h0M612.3,459.1h0M609.5,459.5h0M612,459.9h0M610.3,460h0M614.5,460.5h0M634,463.4l-.3-2.5.3,2.5M626.2,462.5l.3-1.6-.3,1.6M630.6,464.8l-1.9-2.1,1.9,2.1M517.7,647.8l-2,4.7,3.5,9.6-6.4,8-.9,5.4-1.6-1-5.2,4.4-4.9-5.2,1.1-16.4,1.2-3.2,5.6-1-10-5.6-6.4,2.4-3.1,4.1,1,2.7-7.5,4.1-7.5,14,1.4,4.3-7.7-3.6-27.4-.8M520.5,653.7h0M507.2,654h0M475.7,677.8h0M597.2,547.3l-8.6,21.9.6,7.4-3,6.8,6.6,18-1.2,2.4,1.5-1.6,6.9,10.5M4.3,1051.3h0M.5,1112.1.5,1112.1l4.4-8.1,2.8,1.4.9,4.9-4.3,6.4M9,1110.6h0M538.3,408.1h0M538.4,446.3l10.1-14.9,5-19.4M371.4,728.8l-4.1,6.4,1.6,1.7-7.6,4.6-.4,3.4-1.3-2.6-14.9-3.7-5.4-6.7,3.2-2.9-7.7-3.5-4.3-5.8-4.1.3,2.7-4.5-2.2-1.1,4.9-3.2-4.4-2.4,2.1-3.4,4.1-.9-7-6.5,1.4-2.7M325.8,696.3h0M324.1,697.3h0M332.3,704.5h0M328.5,706.8h0M327.4,706.8h0M329.5,712.3h0M328.2,713h0M328,713h0M327.9,713.8h0M327.1,716.2h0M330.7,721.3h0M340.8,730.5h0M340.9,731h0M346.8,739.2h0M362.9,744.3l-1-1.8,2.5.6-1.5,1.2M362.2,744.5h0M60.9,672.8h0M58.5,688.8l-1.4,7.4v-4.5l-2.2,2.2v-3c0,0-.9,2.8-.9,2.8l-2.9-1.3,2.3-.7,1.8-5.2-1.6-1,3-2.9-2.7-1.5,1.7-5.1,3.5.4,2.5-3.7,2.2,2.2-3.1,3.4,2.1,2.9-4.3,7.6M63.1,674.2h0M52.8,688.8h0M53.1,689.3h0M59.6,693h0M59.1,694h0M56.5,693h0M56.5,693.3h0M56.2,693.7h0M56.5,694h0M56.2,695.8l-1.8-1.8,1.8,1.8M50.5,708.3l-2.2-1,1.3-12,4.5,2.1-1.1-3,4.1,2.9-6.6,11M59.1,695.3h0M55.6,696h0M57.4,697.7l1.6-1.7-1.6,1.7M51.8,707.5h0M72.9,721h0M72.3,720.8h0M73.4,720.8h0M74.2,729.8l-3.5-3.6,2.1.5-1.8-2.6,2.5-3.3,4.5,4.3-3.8,4.7M71.6,722.8h0M70.1,728.3h0M76.1,728.5h0M70,728.8h0M71,729.2h0M69.8,730.3h0M66.5,735.5h0M66.5,743.3l-2.7-.3,2.8-2v2.3M75,746.8l1.1-3.6,1.7,2.1-2.8,1.5M74.7,744.3h0M64.4,745.8l1-1.7-1,1.7M60,750l.9-5.1-.9,5.1M73.9,746h0M72.8,746.8h0M78.8,750l-.8-3.7,3,2-2.2,1.7M58.1,760.2l-1.2-1.8,2.4,1.2-.9-2.7,2.5-.4v-6.4c0,0,4.1-.3,4.1-.3l1.5-3.1.8,2.9-3.2,5.5-6,5.1M77.2,747.5h0M97.3,772.2l-5.5,5.3h11.5c0,0,2.2,4.2,2.2,4.2l-1.4,6.2-8.6,4.8-1.9-5.5,3.8-3.7-5.9-2.2-6.3,2-2.5,5.5-7.4,5.2,3.6-4.8-1-2.3,3.7-2.5-2.5,1.1-2.1-5.5-3.5-.7-3.2-5.4,2-9.7,4,2.8-1,3.4,1.1-1.8,2.8,2.1-1.6,6.6,2.8,2,1.6-3,6,2.2-3.6-4.4.7-5.1-3.4-2.9-2.6,1.5-2.4-3.6.6,2.3h-1.9l2.1-4.5-2.5,1-.5-2.3-2.8,3.5,1.7-2.2-3-1.5.2-3.1-.6,2-.6-2.1-2.9.3,3.3-5.1-2.9-.9.7-3.1,4.6-1,.3,2.5,5-1.1.3,1.8M77.2,747.7h0M69,748.3h0M67.8,752.7h0M45.9,755.8l-2.2-1.4,3.1-1.8-.9,3.2M67.1,753.5h0M67.3,754h0M67.1,754.5h0M67.1,755h0M66.5,755h0M66.8,755h0M43.7,755.8h0M66.9,755.7h0M66.6,755.5h0M56.3,755.8h0M66.6,756.8h0M46.7,757.3h0M43.6,757.5h0M42.7,759.5v-2.1c0,0,2.4.4,2.4.4l-2.4,1.7M67.2,757.8h0M46.7,760.8l-.5-3,.5,3M41.4,758.5h0M67.6,758h0M56.9,758h0M68.2,758.3h0M68.5,758.3h0M68.7,759h0M69.3,759h0M67.8,758.8h0M56.6,758.8h0M37.1,759h0M39.5,759.3h0M67.9,760.5l.5-1.7-.5,1.7M56.2,759.5h0M69.4,759.3h0M56.8,759.8h0M41.5,759.5h0M42.9,759.8h0M41,759.8h0M41.5,760.5h0M35.8,760.3h0M42,760h0M65.1,760.3h0M72.2,760.8h0M43.2,780l.4-4.8-3.4-3.5,3.2-.9-1.1-2.1,2.3-.4,1.2-7.8-1.5,10,3.8-1.2.9,1.9-2,2.2-1.8-1.4-2,8M70.6,760.8h0M72,761.3h0M35.7,761.3h0M71.6,761.3h0M65.7,762.3l-1.6-.5,1.6.5M72.5,762.2h0M46.7,762.3h0M71.7,762.3h0M76,762.3h0M77.5,766h0M69.1,768.3l1.3-2.1-1.3,2.1M78.9,767h0M70.3,768.3h0M66.9,769.7l1-1.6-1,1.6M51.5,770.3l1.2-1.8-1.2,1.8M48.9,768.7h0M61,768.8h0M56.8,770h0M49.5,769.3h0M40.8,769.7h0M65.7,769.3h0M71,770.3h0M66.6,769.7h0M75.6,770h0M75.4,770h0M41.5,771h0M39.6,772.8h0M78.8,772h0M69.3,774.5l-.8-1.7.8,1.7M41.7,778.5l-2.9-1.5,1.1-3.5,1.8,5M38.6,775l-1.3-1.2,1.3,1.2M83.8,775.2h0M49.3,774.3h0M42.7,774.5h0M78.5,774.5h0M84.8,775.3h0M37.9,775.5h0M36.1,776.2h0M42.1,776.2h0M68.7,776.5h0M37.6,781l-2.5-4.4,2,2.4,1.2-2.1-.7,4.1M42.1,777.2h0M78.2,776.8h0M66.3,776.8h0M84.4,777.2h0M78.5,777.3h0M42.6,777.5h0M66.8,777.3h0M42,777.5h0M79.2,777.3h0M42.4,777.5h0M40.5,777.8h0M42.3,778.5h0M34.1,783l-.2-4.5,2.2,2.5-2,2M25.3,780.8h0M37.3,781h0M29.7,793.7l-8.2-2.1.5-2,1.5,2.4,1.2-1.3-.2-8.9,1.4,2.6,3.2-1.6.7,1.9,1.6-3.6-.3,2.6,2.5.4,1.8,5.8-5.7-.2v4M76,781.5h0M39.8,784.2v-2.6c.1,0,0,2.6,0,2.6M38.8,783h0M86.8,784h0M87.4,783.7h0M34.4,784.3h0M21.5,785.8l.4-1.5-.4,1.5M33.9,785.5h0M33.6,785.5h0M77.2,787.2l-.9-1.4.9,1.4M35.5,786.8h0M22.6,790.2l.5-2.4-.5,2.4M76,789.5h0M30,791.2h0M30,791.3h0M32.9,792.3h0M36.7,792.7h0M35.8,793h0M26.6,793.3h0M35.8,794.3h0M77,795h0M12.4,823.7h0M11,824h0M10.6,824.3h0M10.3,825.3h0M9.7,826.3h0M61.3,671.5h0M60.6,672h0M9.6,826.3h0M553.5,412l7.5-18.2,1.5-19.1-5.5-10-8.8,2.3-3-8.7,5.7,2.3,6.3-6.9,3.8-16.5-4.3-5.6M545.5,357.4h0M561.6,373h0M537.1,407.9h0M291.7,671.8l-6.5-1.3,2.8,2.6-3.5,4.9-4,1.9-6.6-1.1,4.7,1.3-5.1,7.2-4.9-1.3-2.2,2.1-2.3-5,.3,3.1-1.9-.4v-3.6l-7.8,4.5-2.5-3,1.9,2.5-1.7,1.6-2.1-2.1M291.7,672.8l-2.2-1,2.2,1M286.4,671.8h0M288.9,672.7h0M288.6,673.7h0M290.1,673.3h0M288.9,674.5h0M290.5,674.2h0M287.1,675h0M284.3,678.7l1.6-.7-1.6.7M285.9,678.3h0M275.8,678.5h0M285.7,679h0M283.9,679h0M281.1,681.2h0M281.6,681.2h0M276.9,684.8l.7-.6M262.8,686.8h0M269.5,687.5h0M252.8,688.5h0M252.8,688.8h0M265.6,689.2h0M267.8,688.8h0M268.5,689.3h0M272.6,689.2h.3M253.4,691l.7-1.6-.7,1.6M255,692.2l-.4-2,.4,2M252.7,691.3h0M256.9,691.7h0M256.3,693.3h0M254,693.5h0M253.3,694h0M254.4,696h0M92.6,699.3h0M122,712.5h0M121.4,713h0M126.4,713.8h0M128,715h0M107.1,769.5l-2.7-7.6M89.5,743.3l5.3-3.8-3-2.7,5.7-4.8,3,4.9,6-1,1.5-5-3.6,2.6-3.2-2.6,2.4,1.6,5.1-3.7-.2-5.2,3.9-4.1,4.6.4,6.2-3.7,3.1,1.6-3.7,2.5h2.8l1-2.5,3.3,1.7,6.1-4.3-2.6,8.9,1.6-.5,4.4,10.9,4.4.4M126.4,717l-2-.9,2,.9M107.8,719.5l.9-1.5-.9,1.5M111.3,719h0M89.3,721h0M109.7,721.2h0M136.4,723.3v-2.1,2.1M133.8,722.8h0M135.2,725h0M104.7,727h0M98.7,731.2h0M106.8,732.5h0M101.9,735.5v-1.7c0,0,0,1.7,0,1.7M90.1,737.8h0M602.8,261.3h0M556.7,331.5l.3-7.5-3.9-3.9,6.6-8.3h5.8c0,.1,5.9-3.1,5.9-3.1l3.5-15.6-3.5-5.5,3.1-.2,1.3-7.8,5.9,4.8,3.9-2.8,4.4,3,.9,14.5,3.4,7.4,6-3.5,1-7.7,10.6,8.7,4.1-3,4.1-14.8-4.3-7.7-6.3,5.9-13.6,2.4,6.9-25.3,16.7,12.1,9.4-4.6-3.5,16.2,1.1,26.1,4.1,13.3h3.6c0-.1,4.9,5.5,4.9,5.5M601.2,295.3h0M600.1,300.3h0M328,695.3l6-2,7.2-6.9.3-3.8.6,1.6,2.5-2.4-1.9-3,2.3,2v-4.5l-2.3-2.9M343,675.5h0M342.2,676.3h0M343.6,677.5h0M343.4,678.3h0M343.9,681.8h0M342.2,682.7h0M339.5,687.5h0M334.5,687.5l1.7.6-1.9,1.3.2-1.9M164.7,729.2l3.2-.7-3.2.7M143.6,734.8l11.6,2.4,3.5-5.7,3.8-1,5,3,2.5,5.6-1.9,7.7-3.7-.9.9,2.6-7.2,2.1.9,4,3.5,1.2,15-1.2-5,7.9,4.8-.4-2.2,2.7,2.8,1.1,4.2-1.7.8,2-4.3.6-1.7,3.4,9.2,3.3-5.3.6,1.9,1.7-3.3,3.1,3,.4-5.5,1.3-.3,3.4M179.5,754.5h0M174.4,759.8h0M181.1,760.5h0M180.8,761h0M175.4,761.8h0M182.1,764.3h0M177,764.2h0M178.5,770.8l.9-2-.9,2M177.9,769.3h0M185.5,772.3h0M179.9,771.8h0M184.3,774.5h0M183.5,776.5h0M177.9,782.7h0M178.5,785.8h0M407.2,654.5l-5.6,1.7.8,3.2-6.6,11.6v7.2l14.3,5.9,2.1,4.4,2.3-.8-.6,3.9-4.6.4h4.5c0,.1-.4,5.3-.4,5.3l-6.2,1,4.5-1.8-2.7-2.2-.8,2.3-1.4-1.6-3.3,1.9,1.6-3.3-3-.3-2.7,5-.4-2-2.2,2.5-2.1-1.6.2,2.7-2.1-1.4-6.4,3.1-2.4,2.2.9,4.4h-2c0,0,.7-2.6.7-2.6l-3.2,3.1,3.6,3-.4,3.1-2.8-1.7,1,3-5.8,3.1-4.6,9.6M402.4,657.5l.4-1.8-.4,1.8M417.3,682.3h0M413.9,682.3h0M411.5,684.2l1.9-1.7-1.9,1.7M411.2,683.5h0M410.6,683.8h0M410.4,684.5h0M412.8,685.8l1-1.4-1,1.4M411.3,685.5h0M413.2,687h0M412.9,687.3h0M412,692.8h0M404.6,694h0M409.4,695.8h0M409.5,696h0M409.3,696h0M402.9,696.3h0M409.7,696.3h0M409.7,696.7h0M409.3,696.8h0M396.8,699.3h0M388.7,702.2h0M388.9,702.7h0M386.2,703.7h0M385.1,704.2h0M388.1,704.7h0M383,709.2h0M383.3,709.8h0M250.3,685.8l-3.8,6.3-5.6-1.1.2-3.1-7.8,2.6-2.2,3.8-11.4,1.1-1.8,4-5.6,2.2-2.2-1.6-2.6,2.2-1-10-7.5.3-6,5.9.6,2.8M239.2,692.8l-1.8-2.1,3-.8-1.2,2.9M237.3,691.8h0M248.1,691.5h0M242,692.5h0M240.6,692h0M243.6,693.5l1.7-1.4-1.7,1.4M235.7,692.7h0M233.9,692.7h0M234.5,695l.3-2.3-.3,2.3M238.3,697.3l-2.1-4.7,3,2.3-.9,2.4M236,693h0M241.7,694.3l1.1-1.5-1.1,1.5M251.2,693h0M203.8,693.7h0M250.3,694h0M204.7,694.3h0M232.9,696v-1.9c.1,0,0,1.9,0,1.9M202.5,696l.5-1.6-.5,1.6M226.9,695.5h0M204,695.3h0M251.1,695.3h0M233.2,698.5v-3l2.6-.5-2.6,3.5M228.9,695.8h0M195,700l2.7-4.6-2.7,4.6M225.3,697h0M202.2,705.8l1.2-3.2-3.8-4.3,4.8,2.9-2-2.6,2.2-2.4.6,8.7-3,.9M199.2,696.7h0M220.6,696.7h0M223.8,697.3h0M226.3,697h0M223.5,701.3l-1.9-2,5-2.1-3.1,4.1M220,697.8h0M199.3,697.5h0M224.8,697.7h0M223.9,697.8h0M223.3,698.5h0M218.4,698h0M219.1,698.5h0M218.8,698.3h0M222.8,698.8h0M198.9,699.7h0M214.8,700.7h0M216.9,704.2l-2.5-2.2,3.5.2-1,2M213.4,703.3l.6-1.8-.6,1.8M197.1,702h0M208.1,708.5l-5-1.4,3.8-5.5.6,5.3,2.5-.4-1.9,2M206.2,702.2h0M196.2,702.5h0M220.3,702.3h0M220.7,704.5l1.5-2.6-1.5,2.6M222.5,702.3h0M218.5,704l.6-1.6-.6,1.6M200.9,704.7l-.7-1.7.7,1.7M209.1,704.3h0M202.4,704.7h0M213.7,704.5h0M212.8,704.5h0M217.9,704.7h0M196.8,706.2h.3M219.2,706.5h0M208.1,709.3h0M207.1,710.5h0M204,709.8h0M205,711.2h0M953.6,18.2l14.8-16.7,8.7-.9,2.6,2.7-3,3.9,2.2,4.1-1.7,3.7-9.6.2-6.9,5.4-9,2.7-18.6,17-5.9.8-2.6-3.7-3.9,1-2.2,9.1-12.4,9.2-6.1,9.8-6,.5-6,8.8-4.2-1.3,4.3-7.2-.3-5.3,2.2,3.7.6-5.4,4.1,1.4,4.1-3.4.6-5-3.2-.3-.8-3.5,6,1.1,1.5-4.3,11.7-8.6-.8-7.5,7.6,2,3.6-7.6,6.4-2-1.1-9.3,3.5-5,5.5,11.4,14.3-1.5M634.3,25.8l3.1-18.4,2.9,3.7,4.3-.6,4.7-7.3,2.7-.2,26,30.5,7.3,14.8,15.9,18.9,23.6,18.6,17.7,7.6,17.8,3.1,2.3,8.5,3.5,1.9,20,1.5,18.7-17.3,6.8-10,1.4,5.8-12.7,24-1.3,9.2,3.6,6.9,9.3,3.9-2.4,2.3,1.9-2.4-6.3-2.3,3.4,13.2,5.4,8.3,5.1,1.7,8-8.2,7.1,1.5-11.4,5.5-2.3,7.7-5.5-1.3-12.3,2.8-2.6,6.3-5.1,4h-4.9c0,0-3.7-4.8-3.7-4.8l-3.6,5,2.5,3.1-15.6-.8-8.3-3.8-16.6,8.3-15.1,15-10.7,16.1-5.7,29.7-13.5-12.3-23-10-28.6-20.2-11.3-2.4,2.9-2-16.2,7.4-16.5,15.5-3.3-2.3,3.6-.6-4.2-1.5-9.8-13.6-11.5-.2-7.2,10.6-1.3,10.8,12.2,8.6h10.1l9.4,12.6,7.2,2.8,3.5,4.6-10.3,5.7-9.1-4-3.5,2.1.9-4-3.5-.9-2.1,4.7-7.3,3.7-1.8,10.6-7,2.2-2.8,5.3-5.3-1.1-2.9-2.9-2.1-9,4.2-12.7,2.4-1,.5-9.7-5-8.8-5-1.3-6.9-8,3.7-13-1.5-9.7,4.9-4.8,5.7-.3,6.6-8.6,2.9,3.7,2.8-.6,4-9.3,6.3-4.3-9.4-15,1-7.3,3.7.3,3-2.9,14.3,11.7,10.7-2.9-.3,3.1,7,3.1,6-3.5,6.5-8.4-4.4-25.9,2.6-5.4,8.2-3.5,4.1-5.6v-24.3l4.7-7.8,1.9-10.1-1.9-18.2-7.9-21.2M608.5,19.2l-3.1-12.6,4.7,2.7-1.6,9.9M614.1,22.6l2.2-2.4,5.3,3.4,1,3.9-2.4,3-5.4-2-.7-5.9M889.1,60.9h0M831.1,99.7l18-29.4,9.7,6,11.4-2.5-4.1,6.8-2.6-1.5-6.3,6.5-8.7.8-3.4,5.3-4.6,2-7.8,14.5-9,4.2-2.5,13.8.3-4.8h-5.7l-.9-7.2,16.2-14.5M627,75.6l-2.1-.3,2.1.3M620.8,76.6l1.6-1.9-1.6,1.9M873.4,123.4l-2.7-6.9,7.6-.8-1-1.9,4.6-2.8,4.3,2.8-.7,2.7-12.1,6.9M883.3,117.6h0M880.3,120.6h0M876.7,121.4h0M875.9,122.1h0M859.8,128.8l-4.1-.7,2.2-1.4,1.9,2.1M807.2,131.9h0M862.2,132.1h0M811.3,132.1h0M848.5,139.3l-2.6-4.3,6.9-.6-4.3,4.9M838.3,141.9l-2-2.5h4.3l-2.3,2.5M845,142.9l2.6-3.1-2.6,3.1M850.7,142.1h0M850.1,142.4h0M837.8,144.3h0M842.9,145.4h0M824.5,154.4h0M824,155.6h0M801.7,164.4l2.2-.5-2.2.5M800.4,165.9h0M789.4,172.3h0M533.7,229.6l-2-8,7.2-4.8-5.2,12.8M528.6,264.9l1.5-1.9-1.5,1.9M550.3,273.8h0M650.3,2.3h0M605.3,5.6h0M531.5,221.6h0M342.7,673.5l-3.8-1.9-13.4,5.7-13.7-8.1-12.9.7-.5-3-2.5,4.6-4.2.4M293.9,620.2l7.9-3.2,4.1,1.9,11.6-1.1M308.1,617.5h0M309.4,669.5h0M339.3,672.5h0M337.6,672.8h0M338.9,672.8h0M340.1,672.8h0M316.7,673.5h0M317.5,673.2h0M335.7,674.3l1.6-1-1.6,1M306.6,674h0M302.1,675.5l-1.6-1.1,1.6,1.1M333.9,676v-1.9c0,0,0,1.9,0,1.9M303.5,676h0M298.6,676.5l1.1-1.7-1.1,1.7M300.8,676.8h0M296.9,676h0M301.5,676.3h0M304.3,676.7h0M333.7,677.3h0M299.9,677h0M313.7,688.8l10.1-10.5,1.1,1.9-6.3,9,2.8,8.6-10.5,4.6-.3-3.8-3.1.8v-3c0,0,6.2-7.6,6.2-7.6M299,679.3h0M321.6,697.3h0M314.8,704.2h0M600,612.8l.6,2.9-10,.3-8.8,8.2-3.4,7.4-.8,13.8-12.1,3.8-11.1,12.5-6.3-3.8,5-2.2-2.4-2.1,2.7-12.4-4-3.5,3.1-3.5,2.2,1.1.4-4.4,5.8-2,4.8-6-6.6-7-4.3,4.3-1.1-1.3M558.1,616.8h0M548.8,637.7h0M547.7,637.8h0M420.5,541.5l-2.6,6.7,5.4,5,9.1.3,4.3-3,1.9-7.2,9.5-3M553.7,618.8l-3.5,1.1-1.7-2.1,1.4,7.5M551.3,619.2h0M553.1,619h0M553.4,619.2h0M548.8,619.7h0M548.1,619.8h0M551.9,620.3h0M550,620.3h0M548,621.8l.2-1.8,1.5,2.2-1.7-.4M549.9,621.5h0M550.9,621.7h0M550.6,622h0M548.7,623.2h0M533.3,674.3l-3.8-1.3v-5.6l3.5,1.5.3,5.4M525.5,683.8h0M526.4,686.3h0M525.4,694.3l.4-5.8-.4,5.8M523.2,692.2h0M522.4,694h0M522.6,695h0M525.7,694.7h0M518.6,702.5l1.2-3.2,1,2-2.2,1.2M521.6,701.3h0M516,702.7h0M536.2,710.5l-.6-3.9,2.4-.5,1,3-2.8,1.4M541.8,721.5l-2.1-.7,1.2-2.1.9,2.8M551.8,767l-4-6.2,4.7,2.3-.7,3.9M545.6,763.2h0M548.8,801l-.6-1.8.6,1.8M562.2,856.8h0M573.8,910h0M658.9,1059.1h0M659.4,1059.1h0M661,1061.4h0M660.1,1061.1h0M661.7,1062.3h0M662.9,1064.2h0M664.2,1071.1h0M663.9,1071.3h0M601.2,1084.2h0M663.3,1086.8h0M663,1089.3v-2.2c0,0,0,2.2,0,2.2M664.5,1091.3l-1.3-1.7,1.3,1.7M662.8,1090.3h0M661.9,1091.2h0M664.5,1095.2l-1.6-3.6,1.6,3.6M665.8,1092.3h0M662.5,1095.3h0M662.6,1117.8l-2.6-5.7,2.6,5.7M526.7,732.8h0M659.5,1057.6h0M141.4,669.8l-.5-2.3.5,2.3M193.6,701.2l-1.5,11.7-4.5,3,1,6.9-3.8-5.3-4.4.3-4.9-5-4.8,1.8,3.2-3.1-4.1-2.5-9.5,4.3-3.1-2.3-1.7,3.2-2.5-3.9-1.4,4.6-4.2,2.6-4.1-.4-.4-3.8-6.4-3.4-6.3,8.2.5-8.3-2.5-2.9,3.4-5.7-3.1-4.5,1.6-4.2,6.4-.5-4.9-1.3,1.9-2.8,7.4,1.5,1.2,2.6,7.2-.8,5.1-2.4-1-1.7,10-11.8,2,1.2,2.1-2.3M157.5,680.3h0M159.1,680.8h0M153,683.8h0M147.8,684.8h0M154.1,685.2h0M151.1,684.5h0M152.7,685.5h0M152.7,686.8h0M144.2,690.3l-1.3-1.9,3.8-.4-2.5,2.3M149.9,688.8h0M147.5,689.8h0M127.6,693.7l1-1.9-1,1.9M133.2,692.7h0M129.9,703.2h0M129.9,703.3h0M197.1,706.3h-.3M125.3,707.8l-1.1-1.3,1.1,1.3M200.8,710h0M169.4,711.8l2.2-1.6-2.2,1.6M200.2,711.5h0M202.1,711.3h0M168.8,714.3l-.6-3.1.6,3.1M201.9,712.5h0M161.6,713.8l.8-2.1-.8,2.1M172.3,712h0M194.8,713.5h0M197.7,713.5h0M136.1,713.5h0M173.5,717l1.8-3.3-1.8,3.3M169.5,714.3h0M128.2,714.8h0M198.6,715.3h0M191.8,721.3l-1-5.5,4.7-.2,2,3.2,6.8-2.9-4.7,2.3v2.7l-4.4-2.1-3.4,2.5M204.4,715.8h0M198.7,716.5h0M205.2,715.8h0M167.6,716.8h0M189.5,716.5h0M178.8,716.8h0M131.6,717h0M204,718h0M200.6,718.8h0M184.3,719.5h0M184.9,720.8h0M183,721.5h0M196.7,720.8h0M199.4,721.8h0M184.3,725.3l1.2-4.1,2.1,1.6-3.3,2.5M190.6,722h0M187.6,723.8h0M194.2,726.5l-4-2.3,2.4-.6,1.6,2.9M194,724.2h0M200.6,724.5h0M180.4,726.3l.4-1.7-.4,1.7M179.2,725.2h0M200.6,725.8h0M184.5,726h0M188.3,729.5l.9-2.9-.9,2.9M183.2,728.2h0M603.7,485.9l4.5,13.7v25.5l-2,14.3-9,8M414.1,488.8h0M413.5,503h0M412.3,504.3h0M411.3,504.3h0M382.4,580.5l14.8-15.9,9-15.7,1-9.4-2.1-8.3-2.6-.9,3.2-11.7,27.9-10.8,1.5,4.6-4.9,1.1-1,8-5.6.5-4.4,6.1-3.1-3-2.4,1.2-2.2,8.5,3.3-.9,2.5,2.4,3.5-3.6-.3,8.8M415.6,533.8l-1.9-3.8,6.5-.6-.2,2.9-4.4,1.5M413.1,533.2h0M346.6,623.5l1.4,3.7,6.9-3.1-3.9,3.3,6.2.5,2.5-2.8-3.5-.9,1.3-1.4,5.6,2-.9-6.3,2.3,2.1,5.5-1.3-1.4-5.3,3.1-2.5.3,4.9,2.5.8,1.2-6.4-6.8-12,8.1-12.2-.3-3.5,5.7-2.7M376.4,583.2h0M361.6,619.3h0M227.3,702.3l.4-4.5,2.7-1.5,1.6,4.3-4.7,1.7M239,699.5l1.1-3.2-1.1,3.2M237,696.8h0M237.7,698.5l-.4-1.8.4,1.8M235.5,699.3l.9-2.3-.9,2.3M237.9,700l.4-1.5-.4,1.5M226.9,699.3h0M236.4,699.8h0M234.5,702.3l-2.2-2.4,3.5.7-1.3,1.7M241.1,700h0M236.2,700.8h0M226.1,701.8h0M226.1,702.7h0M242,702.7h0M223.6,703.2h0M230.8,707v-4.8c-.1,0,3.7.8,3.7.8l-3.7,4M233.2,702.7h0M224.5,702.5h0M226.3,702.3h0M244.2,703.3h0M246.4,703.8h0M229.6,704.7h0M212.9,773.8l-6.6-1.4-1.1,3-.3-4.7,3.3,1.2-3.5-5-4.8,1.6,1.2-2.7,3.8.7-1.8-3.8,2.7-.3-3-.5,1.2-1.9-2.8-1.9,4,2.3,3.3-3.3-1.1-2.8-3.3,1,2.7-3.4-7.2-.2,2.2-2-1.9-1.7.9-5.2h-4.6c0,.1-8,6.4-8,6.4l-1.7-1.5-3.9,2.6,30.2-20.1,5.4-17.1,7.3-3.9-1.4-2.8,2.3-1.5,8.4,12.5,9.5-4,9.1,1.4,4.1-4.3M228,706.2h0M236.7,706.5h0M237.9,706.5h0M228.8,706.7h0M238.2,707.3h0M215.1,709.3h0M234.2,709.8h0M209.9,711.8h0M233.8,712h0M210.4,716.3l-1.1-1.4,3.2-2.9-2.1,4.3M246.4,713.8h0M207.7,715.3l1-1.8-1,1.8M205.3,715.2l1.5-1.4-1.5,1.4M214.5,715.2h0M218.1,714.8h0M213.1,715.8h0M207.1,717.3h0M213.7,720.5l1.4-3.2-1.4,3.2M212.3,719.5h0M207.1,722h0M204.4,728.3h0M198.4,744.2h0M199.3,745h0M198.1,748.3h0M199,749h0M206.6,757.5h0M199.3,757h0M199.2,759.2l.7-1.8-.7,1.8M204.6,757.5h0M201.1,759.3h0M194.8,759.2h0M194.9,759.3h0M199.4,759.5h0M195.6,760.5l-1.3-1.1,1.3,1.1M200.8,759.5h0M200.8,760.5h0M196.8,761.5h0M197.1,761.2h0M202.1,763.5h0M201.5,764h0M197.1,764h0M202.7,773h0M201.1,773.5h0M208.7,774.8h0M240.9,588.5l-3-3-.2-4.5,4.9-3.6,4.5,6.9-3.4,2,1.6,1.7-4.4.5M229.2,595.7l-2.3-2.8,6.7-3.1-2.3,4.5-3-1.7.9,3.1M237.3,590h0M232.4,595.8v-3.8c0,0,2.2-1.2,2.2-1.2l1.8,2.7-4,2.3M237.1,592h0M232,598.2l-2.8-2.2,2.8,2.2M231.7,598.3h0M232.9,598.3h0M231.1,598.2h0M167.5,674.2l7.2-1.5,11.3-12.9,10.7-7.3,5.1-7.6,9.7-5.4,2.3-5.3-1.5-3.9,15.7-4.4,5.5-4.9,2.6,2.5,8.5-.5-3.8,1M235.2,621.8h0M240.6,622.3h0M231.7,623.2h0M200.8,646.2h0M200.9,646.2h0M184.2,661.5h0M184.9,661.7h0M174.5,665.3h0M175.7,524.7h0M176,524.8h0M639.1,330.1l6.8,12.3-1.5,3.9,4,2.8-2.1,4.3,5.7,5.4,2.4,14.4-2.8,9.9,3.7-4,2.3,6.6-5.6,4.5,1.2,2.3,3.8-2-7.6,8.3,4.7-1-1,1.9-4.3,1.1,2.1,2.1-1.8,1.4,3.7-.2-4.9,2.5,2.5,1.8-3.9,1.8,3.9,2.6-5.1-.4,2.9,2.9-2.7.3.8,2.1-4.8.3-.2-3.2-1,8.1-1.4-3.9-2.1,1.9M653.7,378.5h0M654,395h0M653.5,400.9h0M640.5,423h0M240.8,624l2,4,5.8,1.6,6-4.1,24,.4,15.3-5.7M304.4,700.8l1-2-1,2M305.9,702.5l-1.6-1.4,2.5-1.8-.9,3.2M297.2,701.3l7.1-1.7,2.5,3.3-2.5,9.6,5.5,4.8-3.6,4,5.7,1.3-16.4,9.9-4.6,6.2M308.2,721.2h0M307.4,721.5h0M310,721.5h0M314.7,722.2h0M310.9,721.8h0M314.1,722h0M314.4,722.3h0M299.9,734.2h0M297.7,733.8h0M296.5,734.2h0M291.7,739.3h0M97.7,811.8l2-3.2-2,3.2M95.6,813.2l.9-2.4-.9,2.4M96.2,811h0M98.3,812h0M96.2,812.3h0M97.3,814.3l-.5-2.2.5,2.2M95.1,820.8l-3.3-5.1,4-2.8,1.7,4.1-2.4,3.8M96.1,813.2h0M97.8,813.2h0M142.4,855.7l-2.5-.8-4.2,4.5,4.2,3.5-1.3,3.2h2.2c0,0-5.7,3.1-5.7,3.1l-2.2,4.4-14.2,7.8,6.9-18.9-5-6.9v-5.2l-5-1.8,3.9-2.2,3.4,3.9,3.5-5.5-7.6-4-7,13.2,2.8,9.8,4.5,2.6-1.5,4.4-5,1.3-3.2-4.7h-11.7l.6-3.1-2.5-1.1,1.7-1.3-4.9-3.6,7.9-.7,2.9-8.9-7.9-11.5,2.6-6.5-2.5-9.8,2.5-2.3,4.1,1.1,2.4-3.3M95.2,824h0M95.3,824.5h0M81.6,836.8l-1.8-4.6,4.6.8-2.8,3.8M84.4,833.2h0M85.7,833.2h0M86.6,833.5h0M80.1,835.8h0M79.5,838.3l.5-2.5-.5,2.5M74.1,846.8l-2.7-2.1,6.8-7-4.1,9.1M121.3,842.5h0M121.7,847.2h0M140.4,857.5h0M136,861h0M95.2,861.8h0M119.5,866h0M62.8,870.3h0M60.9,871.3h0M119.4,881.3h0M62.5,888.8h0M84.4,891.5l-.3-2.1,1.7.8-1.4,1.3M60.6,889.8h0M132.4,901l5-11.2,1.1,7.9-5.5,11.9.9,4.5-5.1,2.9-1-6.7,4.6-9.3M108.5,892.2l-2.2-.6,2.2.6M100.8,893.7l1.6-1.7-1.6,1.7M127.8,896.2l.2-2.1-.2,2.1M97.5,912.8l-3-3.7,5.7,2.6-2.7,1.1M112.2,923.5l-3.9-.7-3-7.3,5.7-5.4,8.2,5.1-.8,4.4-6.2,3.9M84.4,938.5l-.8-3.1.8,3.1M66,941.8h0M69.7,942.5h0M81.6,945.8l-1.2-3.6,3.4,3.5h-2.2M65.7,953.5h0M73.8,957.5l-1.2-2.6,2.8-1.1-1.6,3.7M69,966l-.6-1.8.6,1.8M56.6,978h0M55.8,978.3h0M50.8,983.2l-1.5-1.4,1.5,1.4M40.5,999.5h0M40.2,1001.3h0M70.9,1020.6l2-5.1.9,5.8-14.2,9.3,3.2,2-3.5,3.1-3-.8,2,3.1-5.5-3.9.6-2.7-1.3,1.6-5.4-2.7,6.6-.4-3-2.4,11.9-5.8,1.6,1.8,2.2-4.4,3.7-.8-1.3,3.5,2.5-1.2M85.1,1029.2l-1.3-2.5,4.7-3.1-3.4,5.6M50.2,1028.7l-1.2-1.2,1.2,1.2M55.5,1040.6l-3.3-2.6-1.6,1.7-1.9-5.9,2.7-.5-1.1,1.9,3.1.6-1.5,1.5,5.2.8-1.6,2.5M48.4,1033.7h0M48.6,1037.9h0M47.4,1043.1l1.2-2.8-1.2,2.8M52.5,1043.6l-2-2.6,2,2.6M53.6,1042.8h0M52.4,1043.8h0M35.8,1057.1l-.6-7,3.8-.4v3.9c0,0,3.1,2.5,3.1,2.5l-2.3,5.4-3,.3-1-4.7M20.4,1075.8l6.5-1.7-7.4,5.6-1.7-3.1,2.6-.8M14.1,1096.1l-2.2-1.6,2.1-.8v2.4M60.5,873.5h0M60.5,890.3h0M448.1,540.3l13.8-5.2,7.8-6.1,7.4-.6,14.4-11.6,9.1-13.5,5.6-14,17.3-9.3,6.6-6.8,8.3-26.9M523,453.4l2.1-3.1-2.1,3.1M488.1,459.5h0M476.8,491.3l-1.9-1.2,6.6-8.4-2-2.5-3.4,1.6.6-6.5,12.9-14.8-3.8,14.8h6c0-.1-.7,4.7-.7,4.7l-3.8,6.9-10.5,5.4M290.9,738.7l-6.1,17.4-11.5-13.8-8.8-2.8-8.6,1.9-.2-2.8.6,3.1-10.5,4.4,4.2.5-4.4.5-1.3,2.6-1.5-2.8-2.6,4.2,1.5,4.1-1.9,6-1.9-.6-4.1,7.8-4.3,1.1v7c0,0-2.6,3.1-2.6,3.1l3.3,5.6-3.9-3.5-6.3,2.3-4.1-2.9-4.1,2,1.3-5.1,2.9-1.2-.6-2.9h-2.5M290.5,739.5h0M291.2,739.5h0M243.6,749.5h0M243.9,749.7h0M244.5,750h0M213.4,774.5h0M213.1,774.5h0M214.8,774.8h0M204.7,781.3h0M211.2,783h0M207.7,786.5v-3c.1,0,0,3,0,3M210.4,784h0M204.9,784.7h0M176.6,784l-9,9.9-.6,3.1,2.2,1.1-3.3.6-.8,2.5,2.2.8-4.5,6.5-4.6,15.8-1.3,21.1-4.1,4.9-1.4,10.4-4.6-.7-4.4-4.4M174.7,787.5h0M173.8,789.2h0M166.3,799.8h0M169.2,799.8h0M157.2,840.3h0M154.6,852.8l-.5-1.7.5,1.7M153.1,853.5h0M153.3,855h0M152.7,856.3h0M549.9,625.3l-7.5,3.5,2.8,1.6-3.1,1.7.3,6.7,5.4,2.3-4.2,3.9,1,2.7h-3.2l.7-4.4-2.7-4.5-6.3-1.5-10.7,2.4-3,2.6.7,5.4h-2.4M547.7,627.8l1.6-1.1-1.6,1.1M546.2,627.8h0M543.4,629h0M545.3,629.8h0M543,629.7h0M544.4,632.8h0M543,636.5h0M543.3,638.8h0M542.2,648.5h0"/>
  <path class="st0" d="M346.6,623.5l-1.3,5.3,3.5,5.2,11.2,1.2M531.1,544.5l13.2-8.8,7-1.7,3.5-4,11.5,2.9,5.3,4.7.5,5.5M499.7,603l10.1,3.3M509.8,606.3l4,7.9,5,2.7M518.8,617l-.9,7.8-9.4,8M384.2,617.8l1.7,6.4,2.5-.7,1.6,2.7,1.8,7.2-3.1,8.4,1.8,1.5M360,635.3l2-3.2,3.7.4,2.4-6.7,1.9,1.9,5.8-2.3.5-3.3,2.6,1.1-.9-7.8,6.2,2.4M498.1,554.5l4.5-.3,1.5-4.3,5-.9v-3.5c.1,0,2.5,0,2.5,0l-.6-5.2,3.7-.6,2.5-4.1,6.3,7M523.5,542.7l7.6,1.8M544.7,488.7l-2.6-4.3,3.4-16.9,4.2.6,5.3-6-9.1-5.9.7-6.4-8.2-3.5M499,598.7l-3.8-2.5.6-5.4-3.3-2.8h2.8c0-.1-1.6-6.4-1.6-6.4l2.5-1.4-.4-6.5-8.7.5-3.1-4.9,5.6-12,8.5-2.8M402.7,648l-6.9-7.1-5.3,2.4M499,598.7l.7,4.4M508.5,632.8h4.1l-.7,11.5,5.8,3.5M572.1,543l9.6,8.3,6-4.7-.3-4.3,9.8,5M276.9,684.8l.7-.6M295.5,641.8l5.3-2v-4.5l-6.9-15.2M272.6,689.2h.3M295.5,641.8l.3,5.4-6.9,7.7,1.4,6.5-1.9,2.9,3.9,4.8-.6,2.7M523.5,542.7l1-13.3-4.3-4.3,3.4-6.4-1.7-4,1.1-2.1,8.2-.8,1.5-3.1h7.5l-1.8-8.1,9.1-10.1-2.8-1.8M407.2,654.5l-4.5-6.6"/>
  <g data-mapno="1">
    <path class="st5" d="M953.6,18.2l14.8-16.7,8.7-.9,2.6,2.7-3,3.9,2.2,4.1-1.7,3.7-9.6.2-6.9,5.4-9,2.7-18.6,17-5.9.8-2.6-3.7-3.9,1-2.2,9.1-12.4,9.2-6.1,9.8-6,.5-6,8.8-4.2-1.3,4.3-7.2-.3-5.3,2.2,3.7.6-5.4,4.1,1.4,4.1-3.4.6-5-3.2-.3-.8-3.5,6,1.1,1.5-4.3,11.7-8.6-.8-7.5,7.6,2,3.6-7.6,6.4-2-1.1-9.3,3.5-5,5.5,11.4,13.2-1,1.1-.5ZM634.3,25.8l3.1-18.4,2.9,3.7,4.3-.6,4.7-7.3,2.7-.2,26,30.5,7.3,14.8,15.9,18.9,23.6,18.6,17.7,7.6,17.8,3.1,2.3,8.5,3.5,1.9,20,1.5,18.7-17.3,6.8-10,1.4,5.8-12.7,24-1.3,9.2,3.6,6.9,9.3,3.9-2.4,2.3,1.9-2.4-6.3-2.3,3.4,13.2,5.4,8.3,5.1,1.7,8-8.2,7.1,1.5-11.4,5.5-2.3,7.7-5.5-1.3-12.3,2.8-2.6,6.3-5.1,4h-4.9c0,0-3.7-4.8-3.7-4.8l-3.6,5,2.5,3.1-15.6-.8-8.3-3.8-16.6,8.3-15.1,15-10.7,16.1-5.7,29.7-13.5-12.3-23-10-28.6-20.2-11.3-2.4,2.9-2-16.2,7.4-16.5,15.5-3.3-2.3,3.6-.6-4.2-1.5-9.8-13.6-11.5-.2-7.2,10.6-1.3,10.8,12.2,8.6h10.1l9.4,12.6,7.2,2.8,3.5,4.6-10.3,5.7-9.1-4-3.5,2.1.9-4-3.5-.9-2.1,4.7-7.3,3.7-1.8,10.6-7,2.2-2.8,5.3-5.3-1.1-2.9-2.9-2.1-9,4.2-12.7,2.4-1,.5-9.7-5-8.8-5-1.3-6.9-8,3.7-13-1.5-9.7,4.9-4.8,5.7-.3,6.6-8.6,2.9,3.7,2.8-.6,4-9.3,6.3-4.3-9.4-15,1-7.3,3.7.3,3-2.9,14.3,11.7,10.7-2.9-.3,3.1,7,3.1,6-3.5,6.5-8.4-4.4-25.9,2.6-5.4,8.2-3.5,4.1-5.6v-24.3l4.7-7.8,1.9-10.1-1.9-18.2-7.7-20.7-.2-.5ZM608.5,19.2l-3.1-12.6,4.7,2.7-1.3,9.9h-.3ZM614.1,22.6l2.2-2.4,5.3,3.4,1,3.9-2.4,3-5.4-2-1.2-5.7.5-.2ZM889.1,60.9h.2-.2ZM831.1,99.7l18-29.4,9.7,6,11.4-2.5-4.1,6.8-2.6-1.5-6.3,6.5-8.7.8-3.4,5.3-4.6,2-7.8,14.5-9,4.2-2.5,13.8.3-4.8h-5.7l-.9-7.2,16.2-14.2v-.3ZM627,75.6l-2.1-.3,2.2.2h-.1ZM620.8,76.6l1.6-1.9-.3,1.8h-1.3ZM873.4,123.4l-2.7-6.9,7.6-.8-1-1.9,4.6-2.8,4.3,2.8-.7,2.7-11.8,6.9h-.3ZM883.3,117.6h.1c0-.1-.1,0-.1,0ZM880.3,120.6l.3-.2-.3.2ZM876.7,121.4v-.3c0,0,0,.3,0,.3ZM875.9,122.1l.2-.2-.2.2ZM859.8,128.8l-4.1-.7,2.2-1.4,1.9,1.8v.3ZM807.2,131.9h.3-.3ZM862.2,132.1l-.2-.3.2.3ZM811.3,132.1h.1c0,0-.1,0-.1,0ZM848.5,139.3l-2.6-4.3,6.9-.6-4.1,4.7-.2.2ZM838.3,141.9l-2-2.5h4.3l-2.2,2.5h-.1ZM845,142.9l2.6-3.1-2.2,2.9-.4.2ZM850.7,142.1l.2-.3-.2.3ZM850.1,142.4l.3-.3v.2h-.3ZM837.8,144.3h.2c0-.1-.2,0-.2,0ZM842.9,145.4h.5-.5ZM824.5,154.4h.3c0-.1-.3,0-.3,0ZM824,155.6l.2-.2-.2.2ZM801.7,164.4l2.2-.5-1.7.5h-.5ZM800.4,165.9l.3-.2-.3.2ZM789.4,172.3h.3-.3ZM533.7,229.6l-2-8,7.2-4.8-5,12.5-.2.3ZM528.6,264.9l1.5-1.9-1.4,1.9h0ZM550.3,273.8h.1-.1ZM650.3,2.3v.2-.2ZM605.3,5.6h-.2.2ZM531.5,221.6v.2-.2Z"/>
    <circle class="st6" cx="693.1" cy="137.6" r="13"/>
    <text class="st7" transform="translate(685.7 146.5)"><tspan x="0" y="0">1</tspan></text>
  </g>
  <g data-mapno="2">
    <path class="st5" d="M636.8,421l2.1,6.8-4.4-3.1,1,5-4.1,2.9,2,5.5-1.6-1.7-3.8,2.6v2l4,.3-3.4,3.6,1.8,2.8,1.7-1.1.2,3.7-3.1-2,1.9,4.4-3.1.4,1.2,2.9,3.2-.4-2.6,1.5,2.3,2.1-.4,4.1-5.5-7.9-6.7-1.1-5,3.4.9,2.7-2.2-3.5-3.2.5-1.9,3,2.9,1.7-4.1,1.2,2.2.4-5.6,10.7.2,11.5-3.6.3v5.7c-.1,0-3.8-.8-3.8-.8l.9,2.2-4.7-1.9-1.6-5.8h-8.3l-1.1-3.2-8.8-1.6.3-4.7,6.6-1.7,2.4-11,7-11.2-3.8-10.7,2.9-.4,2.1-7.7-4.6-7.3,4.3.3,8.8-4.9,7.6,5.3h7.2c0-.1-1.6,3.2-1.6,3.2l6.1,4.6,3.6-4.6,6,2.5,2.5-13.1,6.6,1.6h0ZM636.5,429.5v-3.4c0,0,0,3.1,0,3.1v.3ZM631.1,446.5l.3-.3-.3.3ZM631.8,453.3l-.6-1.7.8,1.7h-.2ZM635,455.9l.2-.2-.2.2ZM635.3,456.5l.2-.2-.2.2ZM627,457v-.3c.1,0,0,.3,0,.3ZM610.3,457.6v-.2.2c.1,0,0,0,0,0ZM611,457.8h.1c0-.1-.1,0-.1,0ZM610.6,457.8h0c0-.1,0,0,0,0h0ZM614.5,458.4h.3-.3ZM612.8,458.6v-.3h.1v.3ZM612.3,458.9h.2-.2ZM612.8,458.6h-.2v-.3l.2.3ZM612.8,460v-.2c.1,0,0,.2,0,.2ZM612.2,459.8v-.3.3ZM612.3,459.1v-.2h.2l-.2.2ZM609.5,459.5h0v-.2c0,0,0,.2,0,.2ZM612,459.9v-.3c0,0,0,.3,0,.3ZM610.3,460h.1-.1ZM614.5,460.5v-.2.2ZM634,463.4l-.3-2.5.5,2.5h-.2ZM626.2,462.5h.2c0-.1-.2,0-.2,0ZM630.6,464.8l-1.9-2.1,1.7,1.8.2.3ZM538.3,408.1h.1-.1ZM553.5,412l9.1-.9,4.3,5.2,9.9,1.4,13.4,15.7-2.1,7.7-2.9.4,3.8,10.7-7,11.2.4,5.5-3.1,6-6.4,1.4-.8,13.2,1.8,1.5-2.9,3.8-11.8-.8-2.6-4.2-5.9,1.6-8.5-5.4,3.3-18.5,4.2.6,5.3-6-9.1-5.9.7-6.4-8.6-3.8,10.5-14.6,5.2-19.1-.2-.3ZM604.8,342.8l-4.5,4.7.9,18.4-4.6.5,3.1,4.3-3.4,3.7,2.2,5.2-7.9,15.9,6.3,9.3-1,2.5,2,1.2-2.6,5.5,2.6,1.9-1.6,5.9-10.1,5.2-4.7-2.7-1.4-4.5-13.2-3.5-4.3-5.2-9.1.9,7.5-18.2,1.5-19.1-5.5-10-8.8,2.3-3-8.7,5,2.5,5.5-4.5,5.3-18.3-4.3-6.4,4,.6,1.5-3,8,2.2,9.7-3.1,6.3,5.3,1.3-2.5,2.1,2,4.8-.7,6.9-6-.9,4.6,5.9.7-1.5,10.9v.2ZM545.5,357.4v-.2c.1,0,0,.2,0,.2ZM561.6,373v-.2.2ZM537.1,407.9v.2-.2ZM602.8,261.3v-.2c.1,0,0,.2,0,.2ZM639.1,330.1l-6.4,6.2-4.8-1.5-4.4,2.8-1.5-2.7-14.8,9.7-2.8-2.5,1.9-10.5-5.9-.7.9-4.6-10.7,6.7-3.1-2-1.3,2.5-8.2-5.6-3.7,3.1-12.1-1.9-1.5,3-4-.6.3-7.5-3.9-3.9,6.6-8.3h5.8c0,.1,5.9-3.1,5.9-3.1l3.5-15.6-3.5-5.5,3.1-.2,1.3-7.8,5.9,4.8,3.9-2.8,4.4,3,.9,14.5,3.4,7.4,6-3.5,1-7.7,10.6,8.7,2.8-1.1,5.4-16.7-4.3-7.7-6.3,5.9-13.6,2.4,6.9-25.3,16.7,12.1,9.4-4.6-3.5,16.2,1.1,26.1,3.4,12.2,4.3,1,4.7,5.4.2.2ZM601.2,295.3l-.3-.4.3.4ZM600.1,300.3h-.1v-.2c.1,0,.1.2.1.2ZM573,481h6c0,.1,3.6,4.5,3.6,4.5l3.9-1.4,5.9,2.1,1.7,6.4,5.9-.8,1.9-6.5,4.4,4.7,2.6,20.5-3.5,30.3-8.3,6.7-10.1-5.1.7,4.2-6,4.7-10.6-9,.5-4.8-5.3-4.7-11.5-2.9-3.5,4-7,1.7-13.2,8.8-7.2-1.2.6-13.9-4.3-4.3,3.4-6.4-.9-5.8,8.5-1.1,1.5-3.1h7.5l-1.8-8.1,9.1-10.1-1.6-2.2,4.8,3.1,5.9-1.6,2.6,4.2,11.8.8,2.9-3.8-1-9.9h0ZM639.1,330.1l6.8,12.3-1.5,3.9,4,2.8-2.1,4.3,6.2,7.4,1.9,12.4-2.8,9.9,3.7-4,2.3,6.6-5.4,5.5,4.8-.6-7.6,8.2,4.7-1-5.3,3,2.1,2.1-1.8,1.4,3.7-.2-4.9,2.5,2.5,1.8-3.9,1.8,3.9,2.6-5.1-.4,2.8,2.4-2.6.8,1.7,1.8-5.7.6-.2-3.2-1,8.1-1.4-3.9-2.1,1.9-6.7-1.6-2.5,13.1-6-2.5-4.4,4.5-5.3-4.5,1.6-3.3h-7.2c0,.1-10-4.9-10-4.9l1.6-5.9-2.7-5.1,2.7-2.4-7.3-12.9,7.9-15.9-2.2-5.2,3.4-3.7-3.1-4.3,4.6-.5-.9-18.4,4-4.6,3.3,1.8,14.4-9.7,1.5,2.7,4.4-2.8,4.8,1.5,6.3-6.1h.1ZM653.7,378.5v-.2.2ZM654,395h.1c0-.1-.1,0-.1,0ZM653.5,400.9v-.2.2ZM640.5,423h0c0-.1.1,0,.1,0h-.1Z"/>
    <circle class="st6" cx="595.6" cy="414.3" r="13"/>
    <text class="st7" transform="translate(588.2 423.3)"><tspan x="0" y="0">2</tspan></text>
  </g>
  <g data-mapno="3">
    <path class="st5" d="M572.1,543l1.5,13.1-3.5,1.4,1.9,9.9-3.5,7.1-10,1.1-11.6,10.4-3.1-.3-1.9-4-9-1.1-3.3-5.3,5.7-11.7-6-1.8-1.3-2.8,3.7-9.6-2.4-3.1,4.9-5.5,23.7-10.9,8.4,2.9,5.3,4.7.5,5.2v.3ZM498.1,554.5l4.5-.3,1.5-4.3,5-.9v-3.5c.1,0,2.5,0,2.5,0l-.6-5.2,3.7-.6,2.5-4.1,6.7,7.6,7.2,1.2-3.1,16.2,7.3,3.3-5.4,12.4,4.6,5.6,7.4-.2,2.2,3.7-9.2,1.3-5.4-3.8-1.8,1.5-9.1-3.2-4.1,9.1-16.7,7.9-5.3-10.3h2.8c0-.1-1.6-6.4-1.6-6.4l2.5-1.4-.3-6.2-8.8.2-3.1-4.9,5.6-12,7.9-2.6.6-.2ZM597.2,547.3l-8.6,21.9.6,7.4-3,6.8,6.6,18-1.2,2.4,1.5-1.6,6.6,10.8-15.8-12.7-.5,3-2-1.3-14.4,5-10.1-5.7-7.2-9.6-2.8.9-1.7-6.9,6.1-1.9,1.3-4.3,2.8.6,3.1-4.5,10.3-1.5,3.2-6.7-1.9-9.9,3.5-1.4-1.6-13.1,9.7,8.3,6-4.7-.3-4.3,9.7,5.2v-.2ZM549.1,592.5l7.8,8.8,10.1,5.7,14.4-5,2,1.3.5-3,17,13.9-10.3,1.7-7.5,6.4-4.7,9.2-.8,13.8-12.1,3.8-11.1,12.5-6.3-3.8,5-2.2-2.4-2.1,2.7-12.4-4-3.5,3.1-3.5,2.2,1.1.4-4.4,5.8-2,4.8-6-6.6-7-5.4,3.8,2.2-4.3-.9-9.8-5.7-12.7-.2-.3ZM558.1,616.8h.3c0,.1-.3,0-.3,0ZM548.8,637.7h.2-.2ZM547.7,637.8v-.2.2ZM509.8,606.3l3.8-2.5,12.8,3.5,4.5,4.2,7.2-2.5.2,3.1,13-3.5,3.4,1.9,1.2,4.8-2.2,3.5-3.5,1.1-1.7-2.1,1.4,7.5-12.1-6.6-3.5.9,2.2,2.9-1.9,4.2-3.2-4.8-7.5-1.2-10.1-6.5-3.7-7.6-.3-.3ZM551.3,619.2h.2c0-.1-.2,0-.2,0ZM553.1,619v-.2.2ZM553.4,619.2h0,0ZM548.8,619.7h0c0,0,0,0,0,0ZM548.1,619.8v.3-.3ZM551.9,620.3h.2-.2ZM550,620.3l.2-.3-.2.3ZM548,621.8l.2-1.8,1.5,2.2-1.7-.3h0ZM549.9,621.5l1.3-.9-1.3.9ZM550.9,621.7l.7-.4-.7.4ZM550.6,622h.3c0-.1-.3,0-.3,0ZM548.7,623.2l.3-.6-.3.6ZM533.3,674.3l-3.8-1.3v-5.6l3.5,1.5.3,5.1v.3ZM525.5,683.8h.3-.3ZM526.4,686.3h.3-.3ZM525.4,694.3l.4-5.8-.4,5.5v.3ZM523.2,692.2h0c0-.1,0,0,0,0ZM522.4,694v-.2h.2l-.2.2ZM522.6,695h0c0,0,0,0,0,0ZM525.7,694.7v-.2c0,0,0,.2,0,.2ZM518.6,702.5l.6-3.3,1.6,2.1-2,1.2h-.2ZM521.6,701.3h-.2c0,0,.2,0,.2,0h0ZM516,702.7h0c0-.1.1,0,.1,0h-.1ZM536.2,710.5l-.6-3.9,2.4-.5,1,3-2.5,1.3h-.3ZM541.8,721.5l-1.5-2.5,1.6,2.4h-.1ZM551.8,767l-4-6.2,4.7,2.3-.6,3.9h-.1ZM545.6,763.2l-.3-.7.3.7ZM548.8,801l-.6-1.8,1.2,1.4-.6.4ZM562.2,856.8h-.2c0,0,.2,0,.2,0h0ZM573.8,910l.5-.2-.5.2ZM658.9,1059.1v-.2.2ZM659.4,1059.1h-.2v-.2l.2.2ZM661,1061.4v-.3c.1,0,0,.3,0,.3ZM660.1,1061.1h-.1.1c0-.1,0,0,0,0ZM661.7,1062.3v-.4c0,0,0,.4,0,.4ZM662.9,1064.2v-.2.2ZM664.2,1071.1h.2-.2ZM663.9,1071.3v-.2l.2.2h-.2ZM601.2,1084.2v-.2.2ZM663.3,1086.8h.2-.2ZM663,1089.3v-2.2c0,0,0,2,0,2v.2ZM664.5,1091.3l-1.3-1.7,1.5,1.7h-.2ZM662.8,1090.3h-.3v-.2c.1,0,.3.2.3.2ZM661.9,1091.2v-.2c0,0,0,.2,0,.2ZM664.5,1095.2l-1.6-3.6,2.1,3.6h-.5ZM665.8,1092.3v-.2.2ZM662.5,1095.3v-.2.2ZM662.6,1117.8l-2.6-5.7,2.6,5.6h0ZM526.7,732.8h0c0,.1-.2,0-.2,0h.2ZM659.5,1057.6h0c0,0,0,0,0,0ZM543.8,585.8l7.4,10.2,3.5,14.6-5.9-2-10.4,3.6-.3-3.1-7.2,2.5-4.5-4.2-12.8-3.5-6.1,3.3-7.8-4.1,1.2-7.3,13.6-5.4,4.1-9.1,9.1,3.2,1.8-1.5,5.4,3.8,8.8-1.1h0ZM518.8,617l5.1,3.8,7.5,1.2,3.2,4.8,1.9-4.2-2.8-2.1,3.7-1.9,12.5,6.8-7.5,3.5,2.8,1.6-3.1,1.7.3,6.7,5.4,2.3-4.2,3.9,1,2.7h-3.2l.7-4.4-2.7-4.5-6.3-1.5-13.6,4.5.6,5.9-6.2-.6-2.6-6,1.3-8.4h-4.1l9.4-8,.7-7.8h.2ZM547.7,627.8l1.6-1.1-1.5,1.1h0ZM546.2,627.8l-.6.3.6-.3ZM543.4,629h0c0,0,0,0,0,0ZM545.3,629.8l.5-.3-.5.3ZM543,629.7v-.3.3ZM544.4,632.8l.3-.3-.3.3ZM543,636.5h.1-.1ZM543.3,638.8h.1c0,0-.1,0-.1,0ZM542.2,648.5v-.2.2Z"/>
    <circle class="st6" cx="544.3" cy="584" r="13"/>
    <text class="st7" transform="translate(536.9 593)"><tspan x="0" y="0">3</tspan></text>
  </g>
  <g data-mapno="4">
    <path class="st5" d="M444.6,639.2l.7,5.2,5-2,7.3,1.1-9.3,18.6-7.2,4.6-.2,8-22,5.5,2.7-4.9,2.3,1.5,7.6-5.4,1.1,3,2.2-2.9-2.7-4.8-3.8-.7-2.2,3.3-10.4-3.3,1.6-7.8-3.2,10.8,2.9,4.1-6-2.8-1.5-12.5,3.6-7.3-5.3,4.4-5.3-7.3,4.3-12.5,11-3.8,4.2,7.7,4.7,2.2,5.9-2.2,5.8,4,6.2-3.5v-.3ZM409.3,656h.1c0-.1-.1,0-.1,0ZM409.5,658.8l.2-.3-.2.3ZM409.1,665l-.3-2.3.5,2.3h-.2ZM432.6,667.2v-.2.2ZM432.6,668.3v.3c.1,0,0-.3,0-.3ZM428.9,668.2h.3-.3ZM422.7,669.5l.3-.2-.3.2ZM433.2,671.2h0c0-.1,0,0,0,0ZM420.4,672.2h0,0ZM434.2,671.8h.1c0,0-.1,0-.1,0ZM429.9,672.5h.2-.2ZM418.1,673l.5-.3-.5.3ZM418.3,675v-.2.2ZM499.7,603l11.5,4.6,2.6,6.6,5,2.7-.2,6.3-12.1,10.5-9.1,1.5-5.7-4.6-1.2,13.6-4.4,1.3-3.8-8-5.3-.9,1-10.6-4.2-11.5,2.6-2.8-2.3-1.9,8.8-10.4,3.9,4.2,6.5-1.1,3.9,2.9,2.1-2.2.4-.2ZM475.7,618.5l2.3,7.5-1,10.6,5.6,1.2,3,7.5,4.9-1.1-1-6.6,3.3-7.5,4.6,5.1,15.2-2.5-.7,11.5,5.8,3.5-2,4.7,3.8,7.4-8.1,15.9-1.1-1.3-5.2,4.4-4.9-5.2,1.9-18.8,6-1.8-10-5.6-6.4,2.4-3.1,4.1,1,2.7-7.5,4.1-7.5,14,1.4,4.3-7.7-3.6-27.4-.8.2-8,10.4-9.2,5.7-10.5-1-2,15.8-10.6v-10.6l3.4-4.7.3-.5ZM520.5,653.7h.3-.3ZM507.2,654v-.2.2c.1,0,0,0,0,0ZM475.7,677.8v-.2.2ZM445.8,575l3.2,5-4.7,9.5,2.8,3.9-.9,3.6-12.8,11.5,6.6,3.5,3.9,6.1-1.2,3.1,5.3,5.1-1.9,3.6,2,2.6-2.9.2,1.4,3.8-2,2.9-6.2,3.5-5.8-4-5.9,2.2-4.7-2.2-4.4-7.7-7.3,4-3.1-.8-4.1,7-.6,6.7-6.7-7.3-6.6,1.5,2.6-9-2-8.2-3.9-1-2-6.1,4.4-8.1,6.4,2.4.9-2.2,12.5-.6,1.6-5.7-4.6-5.7,2-9.7,4.1-5.2-3-2.9,2.2-2.8h5.2l1.3,4.2,8.8-10.7,2.2,1.8,3.3-2.3,1.7,2.4,3.6-2.1,9,4,.3.2ZM498.1,554.5l-8.5,2.8-5.6,12,3.1,4.9,8.8-.2.3,6.2-2.5,1.4,1.6,6.3h-2.8c0,.1,3.3,2.9,3.3,2.9l-.6,5.4,3.8,2.5.7,4.4-5.1,2.4-1.3-2.9-6.5,1.1-3.9-4.2-8.8,10.4,2.3,2.2-2.6,2.5,1.9,4-3.7,5.2v10.6l-12.8,8.9-8.9-.9-5,2-1.4-3.2,2.7-4.6-1.4-3.8,2.9-.2-2-2.6,1.9-3.6-5.3-5.1,1.2-3.1-3.9-6.1-6.6-3.5,12.8-11.5.9-3.6-2.8-3.9,4.7-9.5-3.2-5,5.5-7.6-.7-2.6,2.9-1.5v-9.6l6-6.8-.5-2.8,7,.7-.6,4.4,2.4,1.7,7.6-4.2,3.5,1.4,5-8.9,7.9-1.5,1.3,6.4,5,3.7v6.6ZM448.1,540.3l4,3.3,2,15.2-8,16.3-9.6-4.2-3.3,2.1-.5-2.2-4.8,2.1-2.2-1.8-8.8,10.7-1.3-4.2-3.6-1.2-3.8,4-.3-19.4,1.9-2.3-1.7-3,3.1-2.9,1.4-8.6,7.2-3.2-2.5,5.7,5.1,6.1,10,.7,4.3-3,1.9-7.2,8.9-2.9h.6ZM414.1,488.8v-.2.2ZM413.5,503v-.2.2ZM412.3,504.3h-.1v-.3.3ZM411.3,504.3h-.1c0,0,.1,0,.1,0h0ZM420.5,541.5l-7.9,2.7-1.4,8.6-3.1,2.9,1.7,3-2.6,14.9,1,6.8,3,2.9-4.7,9.6-4.3,1-5.3-5.1-9.5-.8-5-7.5,17-18.9,7.1-13.6.7-8.5-2.1-8.3-2.6-.9,3.2-11.7,27.9-10.8,1.5,4.6-4.9,1.1-1,8-5.6.5-4.4,6.1-3.1-3-2.4,1.2-2.2,8.5,3.3-.9,2.5,2.4,3.5-3.6-.3,8.6v.2ZM415.6,533.8l-1.9-3.8,6.5-.6-.2,2.9-4.3,1.2v.3ZM413.1,533.2v-.2.2ZM382.4,580.5l5,7.5,9.5.8,5.3,5.1,4.3-1-1.4,5.3,4.9,8.5-1.9,2.9-12.5.6-.9,2.2-6.4-2.4-4.1,7.8-6.2-2.4.9,7.8-2.6-1.1-.5,3.3-5.8,2.3-1.9-1.9-2.5,6.8-3.6-.5-5.2,3.9-8-1.9-3.5-9.9,2.8-.2.7,3.5,6.1-3.3-3.9,3.3,6.2.5,2.5-2.8-3.5-.9,1.3-1.4,5.6,2-.9-6.3,2.3,2.1,5.5-1.3-1.4-5.3,3.1-2.5.3,4.9,2.5.8,1.2-6.4-6.8-12,8.1-12.2-.3-3.5,5.3-2.1.4-.6ZM376.4,583.2h.2-.2ZM361.6,619.3v-.2c.1,0,0,.2,0,.2ZM538.4,446.3l8.2,3.5-.7,6.4,6.7,2.8,2.4,4.1-10.3,6.4-2.6,15.6,5.4,5.4-9.1,10.1,1.8,8.1h-7.5l-1.5,3.1-8.2.8-1.1,2.1,1.7,4-3.4,6.4,4.3,4.3-.6,13.3-6.7-7-2.5,4.1-3.7.6.6,5.2h-2.4c0,0-.1,3.4-.1,3.4l-10.6,5.7-.7-7.4-4.7-3.1-1-6.3-2.5-.6-5.7,2-5,8.9-3.5-1.4-7.6,4.2-2.4-1.7.6-4.4-7-.7.5,2.8-5.4,5.9-2.5-10.5-3.5-2.1,13.8-5.2,7.8-6.1,7.4-.6,14.4-11.6,9.1-13.5,5.6-14,17.3-9.3,6.6-6.8,8.3-26.6v-.3ZM523,453.4l2.1-3.1-1.8,3h-.3ZM488.1,459.5h-.1.1c0,0,0,0,0,0ZM476.8,491.3l-1.9-1.2,6.6-8.4-2-2.5-3.4,1.6.6-6.5,12.9-14.8-3.8,14.8,6.6,1.4-5.1,10.2-10.3,5.4h-.2Z"/>
    <circle class="st6" cx="446.2" cy="610" r="13"/>
    <text class="st7" transform="translate(438.8 619)"><tspan x="0" y="0">4</tspan></text>
  </g>
  <g data-mapno="5">
    <path class="st5" d="M317.5,617.8l2.6.7,14.1-7.7,4.1,4.9-5.4,9.1,2.6-3.7-.3,3.8,4.1,1-.4,3.8,3.6-2.3-2.6-.7v-2.8l5.6-2.9-.2,7.9,3.5,5.2,11.2,1.2,4.2,3.9-1.9,16,2.2,6.9h3.6c0,0,4.1,4.1,4.1,4.1v6.6c.1,0-4.9-3-4.9-3l-1.6,2.9-6.4-1.2-3.7-9.8-3.5-1.6.6-2.6-3.4,3.3-2.9-2,.5-2.3-5.2-1.2.4-6.8-9.5-2.5-1.5-5.2-4.2,1.4-6.8-4.3.5-5.5h5.4l-.2-5.9-.4-1.9-5.1,1.6-3.6-4.3.6-3.7.2-.4ZM343.7,616.7l.2-.4-.2.4ZM346.2,621.5l.2-.2-.2.2ZM339.6,627.3h.5c0,0-.5,0-.5,0ZM384.2,617.8l1.7,6.4,3.9,1,2,8.2-3.1,8.3,3.7,4.9-1.6,9.3-3.5,6.1-5.2,2-6-2.5-.7,4.8-3.5,1.6-3.8-5.9h-3.6c0,0-2.3-8.4-2.3-8.4l2-14.4-4.5-3.2,2.3-3.9,3.7.4,2.4-6.7,1.9,1.9,5.8-2.3.5-3.3,2.6,1.1-.9-7.8,6.2,2.2v.2ZM354.4,691.2l3.7,8.9-3.8.6-5.2,8.2,4.6,4.7-.9,6.9,10.9-1.4,2.7,7.4,5,2.4-4.1,6.4,1.6,1.7-7.6,4.6-1.6,3.7v-2.9c-.1,0-15-3.7-15-3.7l-5.4-6.7,3.2-2.9-7.7-3.5-4.3-5.8-4.1.3,2.7-4.5-2.2-1.1,4.9-3.2-4.4-2.4,2.1-3.4,4.1-.9-7-6.5.7-2.5,3.7,2,22.8-6.4h.6ZM325.8,696.3h.3c0,0-.3,0-.3,0ZM324.1,697.3h.1-.1ZM332.3,704.5v-.3.3ZM328.5,706.8h.1-.1ZM327.4,706.8l.2-.2-.2.2ZM329.5,712.3h.1-.1ZM371,712.5l-1.6,4.6h-3.4c0,0,5-4.4,5-4.4v-.2ZM328.2,713h.3c0-.1-.3,0-.3,0ZM328,713h0c0-.1,0-.1,0-.1h0ZM327.9,713.8l-.2-.3.2.3ZM327.1,716.2h.2c0-.1-.2,0-.2,0ZM365.3,718.3l-.3,2.8.3-3v.2ZM330.7,721.3h.3c0,0-.3,0-.3,0ZM340.8,730.5v-.2h.1v.2ZM340.9,731h.2c0-.1-.2,0-.2,0ZM346.8,739.2l-.2-.2h.2v.2ZM362.9,744.3l-1-1.8,2.5.6-1.5,1.1h0ZM362.2,744.5v-.2c.1,0,0,.2,0,.2ZM341.2,653.3l8.1,7.5,3.4-3.3-.6,2.6,6.7,7.1-4.4,11.2,1.2,12-26.7,7.3-.9-2.4,6-1.9,7.2-6.9.3-3.8h2.5l-1.3-3.8,3.1.8-2.1-.4,1.3-2.9-2.3-2.9,2.6-2.3-1.9-10.1,2.4-1.2-5.7-2,.8-4.6h.3ZM343,675.5v-.4c.1,0,0,.4,0,.4ZM342.2,676.3h0c0,0,0,0,0,0ZM343.6,677.5l.4-.2-.4.2ZM343.4,678.3l.2-.2-.2.2ZM343.9,681.8h-.2c0,.1.2,0,.2,0ZM342.2,682.7l-.2.5.2-.5ZM339.5,687.5l.6-.4-.6.4ZM334.5,687.5l1.7.6h-2.2c0-.1.5-.6.5-.6ZM402.7,648l4.6,6.4-5.7,1.9.8,3.2-6.6,11.6v7.2l14.3,5.9,2.1,4.4,2.3-.8-.6,3.9-4.6.4h4.5c0,.1-.4,5.3-.4,5.3l-6.2,1,4.5-1.8-2.7-2.2-.8,2.3-1.4-1.6-3.3,1.9,1.6-3.3-3-.3-2.7,5-.4-2-2.2,2.5-2.1-1.6.2,2.7-2.1-1.4-6.4,3.1-2.4,2.2.9,4.4h-2c0,0,.7-2.6.7-2.6l-3.2,3.1,3.6,3-.4,3.1-2.8-1.7,1,3-3.9,1-6.5,11.7h-2.2l-5.1-5.4v-3.2l7.3-5.3.3-4,4.1.8,1.2-16.7-2.9-4.4,7.6-5.5-3.5-4-5-1.2-.5-4.7,2.2-.8-3-6.6,3.5-1.6.7-4.8,6.6,2.5,5.4-2.6,3.6-9.3-.5-9.4,4.6-1.8,6.7,7.3.2-.2ZM402.4,657.5l.3-.6-.3.6ZM417.3,682.3l.2-.3-.2.3ZM413.9,682.3h.2c0,0-.2,0-.2,0ZM411.5,684.2l1.9-1.7-1.7,1.7h-.2ZM411.2,683.5h.1-.1ZM410.6,683.8l.3-.3-.3.3ZM410.4,684.5v-.3.3ZM412.8,685.8v-.3.3ZM411.3,685.5l.3-.3-.3.3ZM413.2,687v-.2.2ZM412.9,687.3v-.2.2ZM412,692.8l.3-.4-.3.4ZM404.6,694h.3c0,0-.3,0-.3,0ZM409.4,695.8h0c0,0,0,0,0,0ZM409.5,696h.2-.2ZM409.3,696h0c0,0,.1,0,.1,0h-.1ZM402.9,696.3l.2-.2-.2.2ZM409.7,696.3h.1-.1ZM409.7,696.7h.1c0-.1-.1,0-.1,0ZM409.3,696.8h.1c0,0-.1,0-.1,0ZM396.8,699.3h.1-.1ZM388.7,702.2v-.2c-.1,0,0,0,0,0v.2ZM388.9,702.7h0c0-.1,0,0,0,0ZM386.2,703.7h-.3c0-.1.3,0,.3,0ZM385.1,704.2l.3-.2-.3.2ZM388.1,704.7v-.3.3ZM383,709.2v-.2.2ZM383.3,709.8h0c0,0,0,0,0,0ZM317.5,617.8l-.8,4.1,3.4,4.2,5.3-1.5.4,1.9.2,5.9h-5.4l-.5,5.5,6.8,4.3,4.2-1.4,1.5,5.2,9.5,2.5-2,9.4,5.7,2-2.4,1.2,1.9,10.1-3.1,3-3.3-2.6-13.4,5.7-13.7-8.1-12.9.7-.5-3-2.5,4.6-4.2.4.6-2.7-3.6-3.6.3-11,6.8-7.3-1.2-4.3,6.2-3.1-6.9-19.7,7.9-3.2,4.1,1.9,11.4-1.1h.2ZM308.1,617.5v-.3c.1,0,.1.3.1.3h-.1ZM309.4,669.5l.2-.6-.2.6ZM339.3,672.5h.2-.2ZM337.6,672.8h.4-.4ZM338.9,672.8v-.6.6ZM340.1,672.8l.2-.2-.2.2ZM316.7,673.5l.5-.8-.5.8ZM317.5,673.2h.1-.1ZM335.7,674.3l.5-.2-.5.2ZM306.6,674h0c0,0,0,0,0,0ZM302.1,675.5l-1.6-1.1,1.7.9v.2ZM333.9,676v-1.9c0,0,1.3,1.9,1.3,1.9h-1.3ZM303.5,676l.2-.2-.2.2ZM298.6,676.5l.5-.5-.5.5ZM300.8,676.8v-.3.3ZM296.9,676h.2-.2ZM301.5,676.3h.1c0,0,0,0,0,0h-.1ZM304.3,676.7l-.3-.3h0c0,0,.3.3.3.3ZM333.7,677.3l.2-.2-.2.2ZM299.9,677h0,0ZM313.7,688.8l10.1-10.5,1.1,1.9-6.3,9,2.8,8.6-10.5,4.6-.3-3.8-3.1.8v-3c0,0,6-7.2,6-7.2l.2-.4ZM299,679.3v-.2c.1,0,0,.2,0,.2ZM321.6,697.3v-.3c.1,0,0,.3,0,.3ZM314.8,704.2h.2-.2ZM358.1,668.5l1.2,2.9,4.5,1.3,3.5-3,5,3,1.2-1.9-.3,9.1,8.5,4.9-7.6,5.8,2.9,4.4-1.2,16.7-4.1-.8-4.2,3.2-2.7,7-2.9-2.7-9.1,2,.9-6.9-4.6-4.7,5.2-8.2,3.8-.6-3.7-8.9,1.6-3.8-1.6-9,3.4-9.5.3-.3Z"/>
    <circle class="st6" cx="366.1" cy="668.2" r="13"/>
    <text class="st7" transform="translate(358.7 677.2)"><tspan x="0" y="0">5</tspan></text>
  </g>
  <g data-mapno="6">
    <path class="st5" d="M295.5,641.8l.3,5.4-6.9,7.7,1.4,6.5-1.9,2.9,3.9,4.8-.6,2.7-6.5-1.3,2.8,2.6-3.5,4.9-4,1.9-6.6-1.1,4.7,1.3-5.1,7.2-4.9-1.3-2.2,2.1-2.3-5,.3,3.1-1.9-.4-.6-3.6-7.2,4.5-2.5-3,1.9,3.4-2.5.7-4.2-10.3-.3-10.6-3.8-4.8-.3-12.1,5.3-.9.3-4.1,5.5.2-1-2.6,2.9-1.6,1.4-5.1,7.1,1.4,4.6,4.1,8.1-5.9-.2,2.6,5.9,1.3,1.7,6.5,10.7-4.5.2.4ZM291.7,672.8l-2.2-1,2.3.8v.2ZM286.4,671.8h0,0ZM288.9,672.7h.3-.3ZM288.6,673.7h.1-.1ZM290.1,673.3v-.2c.1,0,0,.2,0,.2ZM288.9,674.5h.3c0-.1-.3,0-.3,0ZM290.5,674.2h.1-.1ZM287.1,675v-.2.2ZM284.3,678.7h.3-.3ZM285.9,678.3h.3c0,0-.3,0-.3,0ZM275.8,678.5v-.2c-.1,0,0,0,0,0v.2ZM285.7,679h.1c0,0-.1,0-.1,0ZM283.9,679h0,0ZM281.1,681.2h.2-.2ZM281.6,681.2v-.3h.1c0,.1-.1.3-.1.3ZM277.6,684.2h-.2.2ZM262.8,686.8h.1-.1ZM269.5,687.5h0,0c0,0,0,0,0,0ZM252.8,688.5h-.1v-.3c.1,0,.1.3.1.3ZM252.8,688.8h.2-.2ZM265.6,689.2h.1-.1ZM267.8,688.8h.1-.1ZM268.5,689.3v-.2.2ZM272.6,689.2h.2c0-.1.1,0,.1,0h-.3ZM253.4,691l.4-.5-.4.5ZM255,692.2l-.4-2,.6,1.9h-.2ZM252.7,691.3v-.2h.1v.2ZM256.9,691.7v-.3.3ZM256.3,693.3l.3-.2-.3.2ZM254,693.5l-.2-.2.2.2ZM253.3,694v-.5.5ZM254.4,696h.2c0,0-.2,0-.2,0ZM235.7,651.5h5.4c0-.1,3.4,3.9,3.4,3.9l-1.2,6.8,3.6,4.4.5,11,3.2,5-3.2,8.8-6.5-.4.2-3.1-7.8,2.6-2.2,3.8-10.7.8-2.5,4.3-10.4,2.8.9-2.9-3.2-5.3,1.9-1.2-7.4-.4-6.7,6,.6,2.8-4.7-1.5-5.1-15.2,4.2-4.6.2-7.2,5.2-5.7,7.4,1.6,1.7-2.4,4.9,1.4,6.3-2.2,1.4-2.7-3.2-1.3,5.6-3.3,5.7-8.2,12,1.5h.5ZM239.2,692.8l-1.8-2.1,3-.8-1.1,2.6v.3ZM237.3,691.8v-.3c0,0,0,.3,0,.3ZM248.1,691.5l.2-.3-.2.3ZM242,692.5h0c0-.1,0,0,0,0ZM240.6,692l.2-.2-.2.2ZM243.6,693.5l.7-.5-.7.5ZM235.7,692.7l.3-.3-.3.3ZM233.9,692.7l.3-.2-.3.2ZM234.5,695v-2.3l.4,1.8-.4.5ZM238.3,697.3l-2.1-4.7,3,2.3-.6,2.4h-.3ZM236,693v-.3.3ZM241.7,694.3l.3-.2-.3.2ZM251.2,693h.1-.1ZM203.8,693.7l.2-.2-.2.2ZM250.3,694l.2-.2-.2.2ZM204.7,694.3l.3-.3-.3.3ZM232.9,696v-1.9,1.7c.1,0,0,.2,0,.2ZM202.5,696h.2c0,0-.2,0-.2,0ZM226.9,695.5l-.2-.5.2.5ZM204,695.3h-.3c0,0,.1-.3.1-.3l.2.3ZM251.1,695.3h.1c0,0-.1,0-.1,0ZM233.2,698.5v-3l2.6-.5-2.2,3.3-.4.2ZM228.9,695.8h.2c0,0-.2,0-.2,0ZM195,700l2.7-4.6-2.7,4.5h0ZM225.3,697h0,0ZM202.2,705.8l1.2-3.2-3.8-4.3,4.8,2.9-2-2.6,2.2-2.4.6,8.7-2.5.6-.5.3ZM199.2,696.7h-.2.2c0-.1,0,0,0,0ZM220.6,696.7h.1c0-.1-.1,0-.1,0ZM223.8,697.3v-.3c0,0,0,.3,0,.3ZM226.3,697h.3-.3ZM223.5,701.3l-1.9-2,5-2.1-3,4h0ZM220,697.8l.3-.4-.3.4ZM199.3,697.5h0,0ZM224.8,697.7h.2c0-.1-.2,0-.2,0ZM223.9,697.8h0c0,0,.2,0,.2,0h-.2ZM223.3,698.5l.2-.2-.2.2ZM218.4,698h.1c0,0-.1,0-.1,0ZM219.1,698.5h.1-.1ZM218.8,698.3h-.3c0,0,.2,0,.2,0h.1ZM222.8,698.8v-.2.2ZM198.9,699.7v-.3.3ZM214.8,700.7h.3-.3ZM216.9,704.2l-2.5-2.2,3.5.2-.9,1.7v.3ZM213.4,703.3l.6-1.8-.5,1.7h-.1ZM197.1,702h0c0-.1,0,0,0,0ZM208.1,708.5l-5-1.4,3.8-5.5.6,5.3,2.5-.4-1.8,2h-.1ZM206.2,702.2v-.2c.1,0,0,.2,0,.2ZM196.2,702.5h.3-.3ZM220.3,702.3h0,0ZM220.7,704.5l1.5-2.6-1.2,2.4-.3.2ZM222.5,702.3v-.3.2c0,0,0,0,0,0ZM218.5,704h.4-.4ZM200.9,704.7l-.7-1.7.9,1.7h-.2ZM209.1,704.3h.2c0,0-.2,0-.2,0ZM202.4,704.7l.6-.3-.6.3ZM213.7,704.5h.1-.1ZM212.8,704.5v-.2c0,0,0,.2,0,.2ZM217.9,704.7h.2c0-.1-.2,0-.2,0ZM197.1,706.3h0c0,0,0,0,0,0ZM219.2,706.5h.2-.2ZM208.1,709.3l.3-.3-.3.3ZM207.1,710.5h.1-.1ZM204,709.8h0,0ZM205,711.2l.2-.2-.2.2ZM141.4,669.8l-.5-2.3.6,2.3h-.1ZM167.5,674.2l1.6,6.1-2.8,4.2,1.5,3.9,4.5-.2-.9,5.9,8.7,1.6,1.8-7.1,3.3-2.3,3.7,13.4,4.8,1.7-1.6,11.5-4.5,3,1.3,6.7-4.1-5.1-4.4.3-4.9-5-4.8,1.8,3.2-3.1-4.1-2.5-9.5,4.3-3.1-2.3-1.7,3.2-2.5-3.9-1.4,4.6-4.2,2.6-4.1-.4-.4-3.8-6.4-3.4-6.3,8.2.5-8.3-2.5-2.9,3.4-5.7-3.1-4.5,1.6-4.2,6.4-.5-4.9-1.3,1.9-2.8,7.4,1.5,1.2,2.6,7.2-.8,5.1-2.4-1-1.7,10-11.8,2,1.2,1.8-2.1.3-.2ZM157.5,680.3h-.1c0,0,.1,0,.1,0h0ZM159.1,680.8h0v-.2c0,0,0,.2,0,.2ZM153,683.8h.3c0,0-.3,0-.3,0ZM147.8,684.8l.3-.3-.3.3ZM154.1,685.2h.2c0-.1-.2,0-.2,0ZM151.1,684.5h0c0,0,0,0,0,0ZM152.7,685.5h.1c0,0-.1,0-.1,0ZM152.7,686.8v-.2c.1,0,0,.2,0,.2ZM144.2,690.3l-1.3-1.9,3.8-.4-2.4,2.3h-.1ZM149.9,688.8v-.2c.1,0,0,.2,0,.2ZM147.5,689.8h.2c0,0-.2,0-.2,0ZM127.6,693.7l1-1.9-.8,1.6-.2.3ZM133.2,692.7l.3-.2-.3.2ZM129.9,703.2l.3-.2-.3.2ZM129.9,703.3h.5-.5ZM196.8,706.2h0c0,0,0,0,0,0ZM125.3,707.8l-1.1-1.3,1.2,1.3h0ZM200.8,710h0c0-.1,0,0,0,0ZM169.4,711.8l2.2-1.6-1.9,1.6h-.3ZM200.2,711.5v-.3c.1,0,0,.3,0,.3ZM202.1,711.3h.1c0,0-.1,0-.1,0ZM168.8,714.3l-.6-3.1.9,3h-.3ZM201.9,712.5h.2-.2ZM161.6,713.8l.8-2.1-.6,2h-.2ZM172.3,712h0c0-.1.2-.2.2-.2l-.2.2ZM194.8,713.5v-.2c0,0,0,.2,0,.2ZM197.7,713.5h.1-.1ZM136.1,713.5v-.2c0,0,0,0,0,0v.2ZM173.5,717l1.8-3.3-1.4,3.3h-.4ZM169.5,714.3h.2-.2ZM128.2,714.8h.3c0,0-.3,0-.3,0ZM198.6,715.3h.1c0,0-.1,0-.1,0ZM191.8,721.3l-1-5.5,4.7-.2,2,3.2,6.8-2.9-4.7,2.3v2.7l-3.8-2.1-3.7,2-.3.5ZM204.4,715.8l.2-.2-.2.2ZM198.7,716.5h.2c0,0-.2,0-.2,0ZM205.2,715.8v-.2.2ZM167.6,716.8l.3-.2-.3.2ZM189.5,716.5h.3c0,0-.3,0-.3,0ZM178.8,716.8l-.2-.3.2.3ZM131.6,717v-.2.2ZM204,718v-.3.3ZM200.6,718.8h0v-.2c0,0,0,.2,0,.2ZM184.3,719.5l.3-.3-.3.3ZM184.9,720.8l.5-.2-.5.2ZM183,721.5h.2-.2ZM196.7,720.8h.1-.1ZM199.4,721.8h.2c0,0-.2,0-.2,0ZM184.3,725.3l1.2-4.1,2.1,1.6-2.8,2.3-.5.2ZM190.6,722l.2-.3-.2.3ZM187.6,723.8l.3-.3-.3.3ZM194.2,726.5l-4-2.3,4.3,1.9-.3.4ZM194,724.2h.2c0-.1-.2,0-.2,0ZM200.6,724.5l.3-.2-.3.2ZM180.4,726.3l.6-.4-.6.4ZM179.2,725.2v-.3c-.1,0,0,.3,0,.3ZM200.6,725.8v-.3c0,0,0,.3,0,.3ZM184.5,726v-.2c0,0,0,.2,0,.2ZM188.3,729.5l.9-2.9-.6,2.7-.3.2ZM183.2,728.2h.3-.3ZM240.9,588.5l-3-3-.2-4.5,4.9-3.6,4.8,4.9-.7,3.5-3,.5,1.6,1.7-4.2.5h-.2ZM229.2,595.7l-2.3-2.8,6.7-3.1-2.3,4.5-3-1.7.9,2.8v.3ZM237.3,590l.3-.2-.3.2ZM232.4,595.8v-3.8c0,0,2.2-1.2,2.2-1.2l1.8,2.7-3.7,2.3h-.3ZM237.1,592v-.3.3ZM232,598.2l-2.8-2.2,2.9,2.2h0ZM231.7,598.3v-.4.4ZM232.9,598.3v-.4.3c.1,0,0,0,0,0ZM231.1,598.2v-.2c0,0,0,0,0,0v.2ZM240.8,624l-2.2,1.5,5.9,6.9-.6,8-7.4,2.7,1.9,2.9-2.6,5.5-12.6-1.6-5.7,8.2-5.6,3.3,3.7,3.2-8.2,3-4.9-1.4-1.7,2.4-7.4-1.6-5.2,5.7-.2,7.2-3.5,3,.7,3.6-3.3,2.1-1.8,7.1-1.9-1.9-5.7,1.3-.2-6.9-4.5.2-1.5-3.9,2.8-4.2-1.6-6.1,7.2-1.5,11.3-12.9,10.7-7.3,5.1-7.6,9.7-5.4,2.3-5.3-1.5-3.9,15.7-4.4,5.5-4.9,2.6,2.5,8.5-.5-3.7,1h0ZM235.2,621.8v-.3.3ZM240.6,622.3l.2-.2-.2.2ZM231.7,623.2v-.2c-.1,0,0,0,0,0v.2ZM200.8,646.2v-.2h0v.2ZM200.9,646.2v-.2h.2l-.2.2ZM184.2,661.5h.1c0-.1-.1,0-.1,0ZM184.9,661.7l.2-.2-.2.2ZM174.5,665.3h0c0,0,0,0,0,0ZM175.7,524.7h0c0,0,0,0,0,0ZM176,524.8h-.2.2ZM293.9,620.2l6.9,15.2-2.5,6.8-3.3-1-10.4,4.8-1.7-6.5-5.9-1.3.2-2.6-8.1,5.9-4.6-4.1-7.1-1.4-1.4,5.1-2.9,1.6,1,2.6h-6.1c0,0,.7,3.5.7,3.5l-5.7,1.3-1,2.4-6.3-.7,2.7-5.8-1.9-2.9,7.4-2.7.6-8-4.6-4.1-.4-4,9.1,5.3,7.4-4.4,22.6.7,15.3-4.9v-.8Z"/>
    <circle class="st6" cx="218.6" cy="668.5" r="13"/>
    <text class="st7" transform="translate(211.2 677.5)"><tspan x="0" y="0">6</tspan></text>
  </g>
  <g data-mapno="7">
    <path class="st5" d="M292.1,681l1.6.2-1.3,7.2-2.8-.8.9-1.8-3.1,3.7v-3.7c-.1,0-4.2.5-4.2.5l1.4-3.4,7.4-2h.1ZM283.9,683.5h0c0,0,0,0,0,0ZM283.3,683.5h.2-.2ZM275.1,684.3h.1c0,0-.1,0-.1,0ZM276.9,684.8v.3c0,0,0-.3,0-.3ZM275.2,684.5h.2c0,0-.2,0-.2,0ZM280.2,686.8l-1.7-1.7h2.8c0-.1-.9,1.7-.9,1.7h-.2ZM275.5,685.3l.2-.4-.2.4ZM276,685.8v-.3c.1,0,0,.3,0,.3ZM282,686.2h.3c0-.1-.3,0-.3,0ZM275.1,686l.3-.2-.3.2ZM276.1,687.8l-1.1-2,1.1,1.8v.2ZM276.3,686.2v-.3c.1,0,0,.3,0,.3ZM274.5,686.3h0c0,0,0,0,0,0ZM285.2,686.5v-.2h.2c0,0-.2.2-.2.2ZM276.6,686.8v-.3c.1,0,0,.3,0,.3ZM274.5,687.2h.2-.2ZM276.7,688.2h.3-.3ZM279.1,689.3v-.2c.1,0,0,.2,0,.2ZM267.3,689.5h0c0-.1,0,0,0,0ZM282.3,689.3h.1-.1ZM272.6,689.2h.3v.2l-.3-.2ZM266,689.7v-.2c0,0,.2,0,.2,0l-.2.2ZM281.3,690.2h.3-.3ZM282.3,689.8h0c0,0,0,0,0,0ZM282.9,689.8h0c0,0,0,0,0,0h0ZM260.7,691.3l.2-.3-.2.3ZM278.3,691.5l.5-.5-.5.5ZM267.5,690v-.3c.1,0,0,.3,0,.3ZM266,690.2h.6c0-.1-.6,0-.6,0ZM265.3,692l-.5-1.7.8,1.4-.3.3ZM262.3,693l.5-2.9-.3,2.8h-.2ZM261.3,712.5l-3.8-1.9,2.4-8.4-4.3-4.1,5.6,2.3,10.4-9.2,8,2.2,3.4-3,1.2,4.1,2.2-2.4,2.5,4.9,8.3,4.3-1,2.9-11.6-1.2-8.6,6-2.4-2.4-4.1.6-8,5.3h-.2ZM284.6,690.8h.2-.2ZM272.9,690.8h0c0,0,0,0,0,0ZM268.1,691.2v-.4.4ZM268.5,691v-.4.4ZM260,691.8v-.6c0,0,0,.6,0,.6ZM265.9,692.8h.3-.3ZM258.7,694.3h.1-.1ZM259.7,694h0c0,0,0,0,0,0ZM261.2,695.7h.1-.1ZM258.7,698.5l1.4-1.5-1.3,1.2v.3ZM261.3,697.8h.2c0,0-.2,0-.2,0ZM259,702v-.3.3ZM259.1,702.2h.2-.2ZM250.8,704.3h-.2c0,0,.2,0,.2,0ZM254.3,706h0,0ZM227.3,702.3l.4-4.5,2.7-1.5,1.6,4.3-4.6,1.6h0ZM239,699.5l1.1-3.2-.8,2.9-.3.3ZM237,696.8h0c0,0,0,0,0,0ZM237.7,698.5l-.4-1.8.6,1.6-.2.2ZM235.5,699.3l.9-2.3-.4,2-.5.3ZM237.9,700h.3-.3ZM226.9,699.3h.1-.1ZM236.4,699.8h.4-.4ZM234.5,702.3l-2.2-2.4,3.5.7-1.2,1.4v.3ZM241.1,700h.4-.4ZM236.2,700.8l.2-.3-.2.3ZM226.1,701.8l.2-.3-.2.3ZM226.1,702.7v-.3c0,0,0,.3,0,.3ZM242,702.7h.3c0-.1-.3,0-.3,0ZM223.6,703.2v-.3.3ZM230.8,707v-4.8c-.1,0,3.7.8,3.7.8l-3.4,3.7-.3.3ZM233.2,702.7h.1-.1ZM224.5,702.5l.3-.2-.3.2ZM226.3,702.3h0,0ZM244.2,703.3h.1c0,0-.1,0-.1,0ZM246.4,703.8v-.3c.1,0,0,.3,0,.3ZM229.6,704.7v-.3.3ZM257.5,710.5l4.1,2.2-.7,6.8-22.5,5.3-8.5,17.7-9.8,1.1,4.4,8-5,2.5-5,8-3.2-2.6,3.4,11.6-1.8,2.7-6.6-1.4-1.1,3-.3-4.7,3.3,1.2-3.5-5-4.8,1.6,1.2-2.7,3.8.7-1.8-3.8,2.7-.3-3-.5,1.2-1.9-2.8-1.9,4,2.3,3.3-3.3-1.1-2.8-3.3,1,2.7-3.4-7.2-.2,2.2-2-1.9-1.7.9-5.2h-4.6c0,.1-8,6.4-8,6.4l-1.7-1.5-3.9,2.6,30.2-20.1,5.4-17.1,7.3-3.9-1.4-2.8,2.3-1.5,8.4,12.5,9.5-4,9.1,1.4,3.7-3.7.4-.6ZM228,706.2l.3-.2-.3.2ZM236.7,706.5v-.5c.1,0,0,.5,0,.5ZM237.9,706.5h.3c0,0-.3,0-.3,0ZM228.8,706.7h.3-.3ZM238.2,707.3h0c0,0,0,0,0,0ZM215.1,709.3h.3c0,0-.3,0-.3,0ZM234.2,709.8h0c0,0,0,0,0,0ZM209.9,711.8v-.2c.1,0,0,.2,0,.2ZM233.8,712h0c0-.1,0,0,0,0ZM210.4,716.3l-1.1-1.4,3.2-2.9-1.9,4.3h-.2ZM246.4,713.8v-.3c.1,0,0,.3,0,.3ZM207.7,715.3l1-1.8-.9,1.4v.4ZM205.3,715.2l1.5-1.4-1.3,1.1-.2.3ZM214.5,715.2l.5-.2-.5.2ZM218.1,714.8h.1-.1ZM213.1,715.8h.1-.1ZM207.1,717.3h.1-.1ZM213.7,720.5l1.4-3.2-1.4,3v.2ZM212.3,719.5h.2c0,0-.2,0-.2,0ZM207.1,722v-.6c.1,0,0,.6,0,.6ZM204.4,728.3h.3c0,0-.3,0-.3,0ZM198.4,744.2l.3-.2-.3.2ZM199.3,745h0,0ZM198.1,748.3v-.2.2ZM199,749l.3-.4-.3.4ZM206.6,757.5l.2-.3-.2.3ZM199.3,757v-.2c-.1,0,0,.2,0,.2ZM199.2,759.2l.7-1.8-.7,1.7h0ZM204.6,757.5h.3-.3ZM201.1,759.3h0c0,0,0,0,0,0ZM194.8,759.2h0c0-.1,0,0,0,0ZM194.9,759.3h0c0,0,0,0,0,0h0ZM199.4,759.5h.2c0,0-.2,0-.2,0ZM195.6,760.5l-1.3-1.1,1.5.8-.2.3ZM200.8,759.5h.3-.3ZM200.8,760.5h-.2l.2-.3v.3ZM196.8,761.5l.2-.3-.2.3ZM197.1,761.2l.4-.2-.4.2ZM202.1,763.5l-.2-.2.2.2ZM201.5,764h0c0-.1,0,0,0,0ZM197.1,764h.3-.3ZM202.7,773h.1-.1ZM201.1,773.5h.1c0-.1-.1,0-.1,0ZM208.7,774.8l-.3-.2.3.2ZM304.4,700.8l1-2-.8,1.8-.2.2ZM305.9,702.5l-1.6-1.4,2.5-1.8-.8,3v.2ZM297.2,701.3l7.1-1.7,2.5,3.3-2.5,9.6,5.5,4.8-3.6,4,5.7,1.3-16.4,9.9-4.3,6.4-5.7-.9-.9-6.8-5.5-.6-1.1-7.7-5.7,2.2-11.7-4.5.7-8.1,4.9-3.9,7.4-2,2.4,2.4,8.6-6,11.6,1.2,1-2.3v-.6ZM308.2,721.2h.2c0-.1-.2,0-.2,0ZM307.4,721.5l.2-.4-.2.4ZM310,721.5v-.2c.1,0,0,.2,0,.2ZM314.7,722.2h.4c0-.1-.4,0-.4,0ZM310.9,721.8l.6-.2-.6.2ZM314.1,722h.1-.1ZM314.4,722.3h-.2c0,0,.2-.2.2-.2v.2ZM299.9,734.2l.3-.3-.3.3ZM297.7,733.8v-.2.2ZM296.5,734.2h.2-.2ZM291.7,739.3h.1c0,0-.1,0-.1,0ZM260.4,719.8l11.9,5.2,5.7-2.2,1.1,7.7,5.5.6.9,6.8,5.4.6-6.1,17.5-11.5-13.8-9.6-3-7.8,2.1-.2-2.8.6,3.1-10.5,4.4,4.2.5-4.4.5-1.3,2.6-1.5-2.8-2.6,4.2,1.5,4.1-1.9,6-1.9-.6-4.1,7.8-4,.6-.2,7.5-2.7,3.1,3.3,5.6-3.9-3.5-6.3,2.3-4.1-2.9-4.1,2,4.2-7.9-3.1-1.3,1.8-2.7-3.7-11,3.5,2,5-8,5-2.5-4.4-8,9.8-1.1,8.5-17.7,21.3-5.1h.7ZM290.5,739.5h.1-.1ZM291.2,739.5v-.2.2ZM243.6,749.5v-.2.2ZM243.9,749.7h0c0-.1,0,0,0,0ZM244.5,750l-.2-.3.2.2h0ZM213.4,774.5h.1c0-.1-.1,0-.1,0ZM213.1,774.5h.1c0,0-.1,0-.1,0ZM214.8,774.8l.5-.2-.5.2ZM204.7,781.3l.6-.2-.6.2ZM211.2,783l.3-.2-.3.2ZM207.7,786.5v-3c.1,0,.2,2.9.2,2.9h-.2ZM210.4,784h.2c0,0-.2,0-.2,0ZM204.9,784.7h.1-.1Z"/>
    <circle class="st6" cx="252.7" cy="728.5" r="13"/>
    <text class="st7" transform="translate(245.3 737.5)"><tspan x="0" y="0">7</tspan></text>
  </g>
  <g data-mapno="8">
    <path class="st5" d="M81.1,736.5l.2-.3-.2.3ZM82.6,736.3h0c0,0,0,0,0,0ZM80,736.8h0,0ZM76.1,737.8h.3-.3ZM81.7,739h.3-.3ZM89.5,743.3l11.1-.6,6.3,4.7,6-2.4v5.4l-7.7,5.7-.8,5.8-5.2-3.5-5.8,4.4,4.6,9.3-10-3.4-4.1-4,1-4.2-5.8-1-2.8-6.1,1.5-2.9,2.9,2.7.7-6.5-4.1-2.5,1.2-1.8,2.5,1.8-.8-5.7,1.5,2.1,2.5-2,1.6,5.3,3.5-.3.2-.3ZM86.1,740h.3c0-.1-.3,0-.3,0ZM87.1,743.2h.2-.2ZM81,747.3l.3-.3h-.2c0,0,0,.3,0,.3ZM79.8,751.8h.2-.2ZM97.8,772.5h.2c0-.1-.2,0-.2,0ZM150.3,779.2l-3.5.9-7,13.3-4.1,1.7v6.2l4.4,6.2-3.3,4.3,3.1,5.1-4.5-.9-1.8,3-10.2,1.4-7.8-5.1-2.5,2.8-6.6.9-1.3-4.7,9.5-12.7-1.6-5.7,5.7-5.5-9.5,1.5,7-6,.3-4.5-8.1-6.8-1.4-5.1h4.7c0-.1-.8-2.6-.8-2.6l3.7-3.6,4.1.3.9-3.5,14.6,8.3,1.7-3.5-2.1-3.9,3.7-2.2,4.8,3,4.9,9.3-.5,4.8,3.5,3.1v.2ZM107.5,795.2l-1.3-2.2,2.5-2.1-1,4.2h-.2ZM110.6,793.5l1-1.6-.7,1.6h-.3ZM103.7,792.3l.2-.3-.2.3ZM108.8,792.5v-.2h.2l-.2.2ZM109.6,795.7l.4-2.7v2.2c-.1,0-.4.5-.4.5ZM105.6,793.3h.3c0,0-.3,0-.3,0ZM109.1,794v-.3.3ZM92.6,795h.5-.5ZM104.3,803l-5.6,1.1-1.2-2.5-.2,5.9-2.2-.6-2.8,5.9-5.2,1.9.2-4.9,3.6-.9-4.3-1.7,2.3-11.6,7.5-.5.7,5.5,5.4-3.8,6.8-.8-2.7,7.6-2.5-.4.2-.2ZM106.1,795.3h0,0ZM107.4,795.7l.4-.2-.4.2ZM96.8,795.7l.2-.2-.2.2ZM106.6,795.8h.2c0,0-.2,0-.2,0ZM108.3,796v-.3c0,0,0,.3,0,.3ZM108.1,796.2h.2-.2ZM105.3,796.3v-.5c0,0,0,.5,0,.5ZM107.8,796.5l.2-.2-.2.2ZM110.7,798.8h.3-.3ZM98.4,803.3v-.3h.2c0,0-.2.3-.2.3ZM98.6,803.5h0c0-.1,0,0,0,0ZM107.4,805.2l.3-.3-.3.3ZM103.1,804.2l.2-.5-.2.5ZM106.8,804h0c0,0,0,0,0,0ZM103.6,804.3l.3-.6-.3.6ZM102.7,805h0,0ZM98.4,805.3h.3-.3ZM101.9,805.2l.3-.3v.2h-.3ZM104,805.5h0,0ZM102.2,806.8l.3-.2-.3.2ZM104.6,806.2h-.2c0-.1.2-.3.2-.3v.3ZM101.9,808.7l3.4-2.4-3.2,2.3h-.2ZM101.8,807.7v-.2c0,0,0,.2,0,.2ZM94,811h.5c0,0-.5,0-.5,0ZM86.3,814.5v-.2c0,0,0,.2,0,.2ZM90.9,814.8h.2-.2ZM104.7,814.8l.3-.3-.3.3ZM89.8,817l-1.3-1.7,1.3,1.4v.3ZM86.4,815.8l-.3-.4.3.4ZM89.9,816h0c0-.1-.2-.3-.2-.3l.3.3ZM90.1,816.7h0,0ZM89.8,817h-.2.2ZM86.4,817.7h0v-.3c0,0,0,.3,0,.3ZM9,1110.6h-.3c0-.1.1-.1.1-.1h.2ZM60.9,672.8h0c0,0,0,0,0,0ZM58.5,688.8l-1.4,7.4v-4.5l-2.2,2.2v-3c0,0-.9,2.8-.9,2.8l-2.9-1.3,2.3-.7,1.8-5.2-1.6-1,3-2.9-2.7-1.5,1.7-5.1,3.5.4,2.5-3.7,2.2,2.2-3.1,3.4,2.1,2.9-4.3,7.3v.3ZM63.1,674.2h-.2c0-.1.2-.1.2-.1h0ZM52.8,688.8h.2-.2ZM53.1,689.3v-.2.2ZM59.6,693h0c0,0,0,0,0,0ZM59.1,694h.2c0,0-.2,0-.2,0ZM56.5,693h.1c0,0-.1,0-.1,0ZM56.5,693.3h.1c0,0-.1,0-.1,0ZM56.2,693.7h0v-.2c0,0,0,.2,0,.2ZM56.5,694h-.2v-.2l.2.2ZM56.2,695.8l-2.1-1.3,2.1.6v.7ZM50.5,708.3l-2.2-1,1.3-12,4.5,2.1-1.1-3,4.1,2.9-6.5,10.9h-.1ZM59.1,695.3h.3c0,0-.3,0-.3,0ZM55.6,696h.2c0,0-.2,0-.2,0ZM57.4,697.7l1.6-1.7-1.2,1.3-.4.4ZM51.8,707.5h.1c0,0-.1,0-.1,0ZM72.9,721v-.2.2ZM72.3,720.8h0c0,0,0,0,0,0ZM73.4,720.8h.2-.2ZM74.2,729.8l-3.5-3.6,2.1.5-1.8-2.6,2.5-3.3,4.5,4.3-3.8,4.3v.4ZM71.6,722.8h0c0,0,0,0,0,0ZM70.1,728.3h.2-.2ZM76.1,728.5l.2-.2-.2.2ZM70,728.8h0,0ZM71,729.2h0c0-.1,0,0,0,0ZM69.8,730.3h.2-.2ZM66.5,735.5h.3c0,0-.3,0-.3,0ZM66.5,743.3l-2.7-.3,2.4-2,.4,2v.3ZM75,746.8l1.1-3.6,1.7,2.1-2.7,1.5h0ZM74.7,744.3v-.3.3ZM64.4,745.8l1-1.7-.8,1.5-.2.2ZM60,750l.7-5.1.2,4.8-.9.3ZM73.9,746h0c0-.1,0-.1,0-.1h0ZM72.8,746.8v-.2c0,0,0,.2,0,.2ZM78.8,750l-.8-3.7,3,2-1.8,1.2-.4.5ZM58.1,760.2l-1.2-1.8,2.4,1.2-.9-2.7,2.5-.4v-6.4c0,0,4.1-.3,4.1-.3l1.5-3.1.8,2.9-3.2,5.5-5.8,5.1h-.2ZM77.2,747.5l.3-.2-.3.2ZM77.8,750.5l-1.5,2.9,2.8,6.1,5.8,1v5.2c0,0,6.8,5.5,6.8,5.5l5.6,1-5.5,5.3,4.6,1.2,5.7-2.1,2.6,3.5-.6,7.8-5.7,3.8-2.9,1-1.8-2.7v-2.8c0,0,3.7-2.3,3.7-2.3l-.7-2.9-5.2-.7-6.3,2-2.5,5.5-7.4,5.2,3.6-4.8-1-2.3,3.7-2.5-2.5,1.1-2.1-5.5-3.5-.7-3.2-5.4,2-9.7,4,2.8-1,3.4,1.1-1.8,2.8,2.1-1.6,6.6,2.8,2,1.6-3,6,2.2-3.6-4.4.7-5.1-3.4-2.9-2.6,1.5-2.4-3.6.6,2.3h-1.9l2.1-4.5-2.5,1-.5-2.3-2.8,3.5,1.7-2.2-3-1.5.2-3.1-.6,2-.6-2.1-2.9.3,3.3-5.1-2.9-.9.7-3.1,4.6-1,.3,2.5,5.3.3v.4ZM77.2,747.7h-.3.3ZM69,748.3h-.2.2ZM67.8,752.7v-.2h0v.2ZM45.9,755.8l-2.2-1.4,3.1-1.8-.6,3.2h-.3ZM67.1,753.5h0,0ZM67.3,754h.2c0,0,0,0,0,0h-.2ZM67.1,754.5h0c0-.1,0,0,0,0ZM67.1,755v-.2.2ZM66.5,755v-.2c0,0,0,.2,0,.2h0ZM66.8,755h.3-.3ZM43.7,755.8h.2c0,0-.2,0-.2,0ZM66.9,755.7l.2-.2-.2.2ZM66.6,755.5h0c0-.1.2,0,.2,0h-.2ZM56.3,755.8l.2-.3-.2.3ZM66.6,756.8h.2-.2ZM46.7,757.3h0,0ZM43.6,757.5h0c0-.1,0,0,0,0ZM42.7,759.5v-2.1c0,0,2.4.4,2.4.4l-2.2,1.5-.2.2ZM67.2,757.8v-.2.2ZM46.7,760.8l-.5-3,.5,2.8v.2ZM41.4,758.5l.3-.3-.3.3ZM67.6,758v-.3h.2c0,0-.2.3-.2.3ZM56.9,758v-.2.2ZM68.2,758.3h.2-.2ZM68.5,758.3h.2-.2ZM68.7,759v-.2.2ZM69.3,759h0,0ZM67.8,758.8v-.2.2ZM56.6,758.8h-.1c0,0,.1,0,.1,0h0ZM37.1,759v-.3.3ZM39.5,759.3h.1c0,0-.1,0-.1,0ZM67.9,760.5v-1.7c0,0,.5,1.6.5,1.6h-.5ZM56.2,759.5h0,0ZM69.4,759.3h0c0,0,0,0,0,0h0ZM56.8,759.8v-.3.3ZM41.5,759.5h0c0,0,0,0,0,0ZM42.9,759.8h0,0ZM41,759.8l-.2-.2h.2v.2ZM41.5,760.5v-.2.2ZM35.8,760.3h0c0,0,0,0,0,0ZM42,760h.1-.1ZM65.1,760.3h0c0,0,0,0,0,0ZM72.2,760.8v-.4.4ZM43.2,780l.4-4.8-3.4-3.5,3.2-.9-1.1-2.1,2.3-.4,1.2-7.8-1.5,10,3.8-1.2.9,1.9-2,2.2-1.8-1.4-1.8,8h-.2ZM70.6,760.8l-.2-.3.2.2h0ZM72,761.3h.2-.2ZM35.7,761.3h0c0,0,0,0,0,0ZM71.6,761.3h0c0,0,.2,0,.2,0h-.3ZM65.7,762.3l-1.6-.5,1.8.2-.2.3ZM72.5,762.2v-.4.4ZM46.7,762.3v-.3.2c0,0,0,0,0,0ZM71.7,762.3h.2c0,0-.2,0-.2,0ZM76,762.3h0c0,0,0,0,0,0ZM77.5,766v-.3.3ZM69.1,768.3l1.3-2.1-1.3,2h0ZM78.9,767h.2c0-.1-.2,0-.2,0ZM70.3,768.3v-.3.3ZM66.9,769.7l1-1.6-1,1.4v.2ZM51.5,770.3l1.2-1.8-.8,1.5-.4.3ZM48.9,768.7h0c0-.1,0,0,0,0ZM61,768.8h0c0,0,0,0,0,0ZM56.8,770v-.2.2ZM49.5,769.3h.1c0,0-.1,0-.1,0ZM40.8,769.7l.2-.2-.2.2ZM65.7,769.3h.3c0,0-.3,0-.3,0ZM71,770.3h.2-.2ZM66.6,769.7v-.2c0,0,0,.2,0,.2ZM75.6,770h0,0ZM75.4,770h.2-.2ZM41.5,771h.2c0,0-.2,0-.2,0ZM39.6,772.8v-.4.4ZM78.8,772h0c0,0,0,0,0,0ZM69.3,774.5l-.8-1.7,1,1.6h-.2ZM41.7,778.5l-2.9-1.5,1.1-3.5,1.8,4.7v.3ZM38.6,775l-1.3-1.2,1.5,1-.2.2ZM83.8,775.2h0c0-.1,0,0,0,0ZM49.3,774.3h.2-.2ZM42.7,774.5h-.3.2c0-.1,0,0,0,0ZM78.5,774.5h0c0,0,0,0,0,0ZM84.8,775.3h0c0,0,0,0,0,0h0ZM37.9,775.5h-.2v-.3l.2.3ZM36.1,776.2h.3-.3ZM42.1,776.2h.3c0-.1-.3,0-.3,0ZM68.7,776.5v-.2c0,0,0,.2,0,.2ZM37.6,781l-2.5-4.4,2,2.4,1.2-2.1-.6,4h0ZM42.1,777.2v-.3c-.1,0,0,.3,0,.3ZM78.2,776.8v-.2c0,0,0,.2,0,.2ZM66.3,776.8l-.3-.2h.2v.2ZM84.4,777.2v-.2c.1,0,0,.2,0,.2ZM78.5,777.3h.3c0,0-.3,0-.3,0ZM42.6,777.5v-.2.2ZM66.8,777.3h.3c0,0-.3,0-.3,0ZM42,777.5h.1c0,0-.1,0-.1,0ZM79.2,777.3h.2c0,0-.2,0-.2,0ZM42.4,777.5h.2-.2ZM40.5,777.8h.2-.2ZM42.3,778.5v-.4.4ZM34.1,783l-1.4-4.2,3.3,1.2-1.6,2.9h-.3ZM25.3,780.8v-.2c.1,0,0,.2,0,.2ZM37.3,781h.1c0,0-.1,0-.1,0ZM29.7,793.7l-8.2-2.1.5-2,1.5,2.4,1.2-1.3-.2-8.9,1.4,2.6,3.2-1.6.7,1.9,1.6-3.6-.3,2.6,2.5.4,1.8,5.8-5.7-.2v4ZM76,781.5l.3-.2v.2h-.3ZM39.8,784.2v-2.6c.1,0,0,2.5,0,2.5h0ZM38.8,783v-.3c.1,0,0,.3,0,.3ZM86.8,784l.3-.2-.3.2ZM87.4,783.7v-.2l.2.2h-.2ZM34.4,784.3h.2-.2ZM21.5,785.8h.1c0,0-.1,0-.1,0ZM33.9,785.5h.2c0-.1-.2,0-.2,0ZM33.6,785.5h-.3c0-.1.2-.1.2-.1h.1ZM77.2,787.2l-.9-1.4,1.2,1.3h-.3ZM35.5,786.8h.2-.2ZM22.6,790.2l.5-2.4-.2,2.2-.3.2ZM76,789.5v-.3c0,0,0,.3,0,.3ZM30,791.2l-.2-.2h.2v.2ZM30,791.3h0c0,0,.1,0,.1,0h-.1ZM32.9,792.3v-.3.3ZM36.7,792.7h.3-.3ZM35.8,793v-.2.2ZM26.6,793.3h.4-.4ZM35.8,794.3l.2-.2-.2.2ZM77,795l.5-.4-.5.4ZM12.4,823.7v-.5c.1,0,0,.5,0,.5ZM11,824h0c0-.1.2,0,.2,0h-.2ZM10.6,824.3h.2c0,0-.2,0-.2,0ZM10.3,825.3l.2-.3-.2.3ZM9.7,826.3h.2c0,0-.2,0-.2,0ZM61.3,671.5v.2-.2ZM60.6,672v-.2c0,0,0,.2,0,.2h0ZM9.6,826.3h0c0,.1,0,0,0,0ZM92.6,699.3l.4-.4-.4.4ZM122,712.5l.2-.4-.2.4ZM121.4,713h0c0-.1,0,0,0,0ZM126.4,713.8v-.3c0,0,0,.3,0,.3ZM128,715h.2-.2ZM143.6,734.8l-.7,6.4-6.6-.8-6.5,4.1-2.8,5.8,1.6,4.3-2,1.7,2.9,2.8-1.6,4.4-8.2-3.5-.9,3.5-4.1-.3-3.7,3.6.5,2.6h-5.3l1.5-2.6-4.1-8.5,9.3-8v-5.4l-6,2.4-6.3-4.7-11.1.6,5.3-3.8-3-2.7,5.7-4.8,3,4.9,6-1,1.5-5-3.6,2.6-3.2-2.6,2.4,1.6,5.1-3.7-.2-5.2,3.9-4.1,4.6.4,6.2-3.7,3.1,1.6-3.7,2.5h2.8l1-2.5,3.3,1.7,6.1-4.3-2.6,8.9,1.6-.5,4.4,10.9,4.1.3h.3ZM126.4,717l-2-.9,3.1.4-1.1.5ZM107.8,719.5l-1-1.4,1.2,1.3h-.2ZM111.3,719h.2-.2ZM89.3,721v-.2.2ZM109.7,721.2h.3-.3ZM136.4,723.3v-2.1l.4,2.1h-.4ZM133.8,722.8h-.3,0c0,0,.2,0,.2,0ZM135.2,725h.2-.2ZM104.7,727l.2-.3-.2.3ZM98.7,731.2h.2-.2ZM106.8,732.5l.4-.3-.4.3ZM101.9,735.5l.2-.2-.2.2ZM90.1,737.8v-.3.3ZM164.7,729.2l3.2-.7-2.6.6h-.6ZM176.6,784l-1.8.6.5-5-4.3-.8-2.5,3.5-6.7,1.1-4.6-4.6-5.4,2-5-5,.5-4.8-7.8-11.9-5,.3-.2,8.9-6.8-3.8,2-5.4-2.9-2.8,2-1.7-1.6-4.3,4.3-7.7,5-2.2,6.6.8.7-6.4,11.6,2.4,4.2-6.3,6.6.9,3.8,6.1v5.6c-.1,0-1.7,3.3-1.7,3.3l-3.7-.9.9,2.6-2.5,1.5-4.4-.7v3.6c.1,0,4.1,2.9,4.1,2.9l15-1.2-5,7.9,4.8-.4-2.2,2.7,2.8,1.1,4.2-1.7.8,2-4.3.6-1.7,3.4,9.2,3.3-5.3.6,1.9,1.7-3.3,3.1,3,.4-5.5,1.3-.3,3.3h0ZM179.5,754.5h.2c0-.1-.2,0-.2,0ZM174.4,759.8h-.2c0,0,.2,0,.2,0h0ZM181.1,760.5h.3c0,0-.3,0-.3,0ZM180.8,761h.3c0-.1-.3,0-.3,0ZM175.4,761.8h.1c0,0-.1,0-.1,0ZM182.1,764.3l.6-.4-.6.4ZM177,764.2v-.3h.2c0,.1-.2.3-.2.3ZM178.5,770.8l.9-2-.8,1.7v.3ZM177.9,769.3v-.3.3ZM185.5,772.3v-.2.2ZM179.9,771.8h0c0,0,0,0,0,0ZM184.3,774.5v-.2c-.1,0,0,.1,0,.1h0ZM183.5,776.5h0c0,0,0,0,0,0h0ZM177.9,782.7h.3-.3ZM178.5,785.8h0,0ZM97.7,811.8l2-3.2-1.9,3.1h0ZM95.6,813.2l.9-2.4-1,2.1v.3ZM96.2,811h0c0,0,0,0,0,0ZM98.3,812v-.2c0,0,0,.2,0,.2ZM96.2,812.3v-.2.2ZM97.3,814.3l-.5-2.2.7,1.8-.2.4ZM95.1,820.8l-3.3-5.1,4-2.8,1.7,4.1-2.3,3.7h0ZM96.1,813.2h0c0-.1,0-.1,0-.1h0ZM97.8,813.2h.2c0-.1,0,0,0,0h-.2ZM121.6,820l-.7,2.4,4.5,6.1,5.3,3.4-1.8,4,5.3,2,3.1,8.1,5.3-.3,1.9,3.3-2.1,6.6-2.5-.8-4.2,4.5,4.2,3.5-1.3,3.2h2.2c0,0-5.7,3.1-5.7,3.1l-2.2,4.4-14.2,7.8,6.9-18.9-5-6.9v-5.2l-5-1.8,3.9-2.2,1.5,4,2.6-.4,2.8-5.2-1.3-2.5-7.9-.7-5.4,12.4,2.8,9.8,4.5,2.6-3.8,6.1-3.4-.7-2.5-4.4h-11.7l.6-3.1-2.5-1.1,1.7-1.3-4.9-3.6,7.9-.7,2.9-8.9-7.9-11.5,2.6-6.5-2.2-10.9h6.3c0,0,2.4-3.4,2.4-3.4l4.5,3,7.4-4.1,4.7,4.7h.4ZM95.2,824v-.4h0c0,.1,0,.4,0,.4ZM95.3,824.5l.3-.2-.3.2ZM81.6,836.8l-1.8-4.6,4.6.8-2.8,3.6v.2ZM84.4,833.2l.2-.2h.2c0,0-.4.2-.4.2ZM85.7,833.2h0c0-.1,0,0,0,0h0ZM86.6,833.5h-.2c0-.1.2-.1.2-.1h0ZM80.1,835.8v-.2.2ZM79.5,838.3l.5-2.5-.3,2.1-.2.4ZM74.1,846.8l-2.7-2.1,6.8-7-4,8.7v.4ZM121.3,842.5v-.2c0,0,0,0,0,0v.2ZM121.7,847.2l.2-.4-.2.4ZM140.4,857.5v-.4.4ZM136,861h.5c0,0-.5,0-.5,0ZM95.2,861.8l.3-.3-.3.3ZM119.5,866l.3-.3-.3.3ZM62.8,870.3v-.5.5ZM60.9,871.3h0,0ZM119.4,881.3h-.2l.2-.2v.2ZM62.5,888.8h0c0,0,0,0,0,0ZM84.4,891.5l-.3-2.1.5,2.1h-.2ZM60.6,889.8l.3-.2-.3.2ZM132.4,901l5-11.2,1.1,7.9-5.5,11.9.9,4.5-5.1,2.9-1-6.7,4.6-8.7v-.6ZM108.5,892.2l-2.2-.6h2.4l-.2.6ZM100.8,893.7l1.6-1.7-1.6,1.5v.2ZM127.8,896.2l.2-2.1v2.1h-.2ZM97.5,912.8l-3-3.7,5.7,2.6-2.5,1h-.2ZM112.2,923.5l-3.9-.7-3-7.3,5.7-5.4,8.2,5.1-.8,4.4-5.9,3.7-.3.2ZM84.4,938.5l-.8-3.1,1,3.1h-.2ZM66,941.8h.2c0,0-.2,0-.2,0ZM69.7,942.5v-.3.3ZM81.6,945.8l-1.2-3.6,3.4,3.5h-1.9c0,0-.3,0-.3,0ZM65.7,953.5l.2-.5-.2.5ZM73.8,957.5l-1.2-2.6,2.8-1.1-1.5,3.6h0ZM69,966l-.6-1.8.9,1.8h-.3ZM56.6,978l.2-.3-.2.3ZM55.8,978.3l.3-.5-.3.5ZM50.8,983.2l-1.5-1.4,1.5,1.3h0ZM40.5,999.5h.2c0-.1-.2,0-.2,0ZM40.2,1001.3l.3-.2-.3.2ZM70.9,1020.6l2-5.1.9,5.8-14.2,9.3,3.2,2-3.5,3.1-3-.8,2,3.1-5.5-3.9.6-2.7-1.3,1.6-5.4-2.7,6.6-.4-3-2.4,11.9-5.8,1.6,1.8,2.2-4.4,3.7-.8-1.5,3.4,2.5-.9.2-.2ZM85.1,1029.2l-1.3-2.5,4.7-3.1-3.4,5.5h0ZM50.2,1028.7l-1.2-1.2,1.5,1.1h-.3ZM55.5,1040.6l-3.3-2.6-1.6,1.7-1.9-5.9,4.4,1.1-1.2,2.4,4.6.3-.6,2.4-.4.6ZM48.4,1033.7l.2-.3-.2.3ZM48.6,1037.9h0,0ZM47.4,1043.1l1.2-2.8-1,2.7h-.2ZM52.5,1043.6l-2-2.6,2.2,2.4-.2.2ZM53.6,1042.8h0c0,0,0,0,0,0ZM52.4,1043.8v-.2.2c0,0,0,0,0,0ZM35.8,1057.1l-.6-7,3.8-.4v3.9c0,0,3.1,2.5,3.1,2.5l-2.3,5.4-3,.3-1.1-4.6h0ZM20.4,1075.8l6.5-1.7-7.4,5.6-1.7-3.1,2.2-.7h.4ZM14.1,1096.1l-2.2-1.6,2.1-.8.7,2.1-.6.3ZM60.5,873.5h0c0,.1-.2,0-.2,0h.2ZM60.5,890.3h0c0,.1,0,0,0,0ZM176.6,784l-9.6,11.3,2.2,2.8-3.3.6-.8,2.5,2.2.8-4.9,7.6-5.8,21.2.3,14.6-4.1,4.9-1.4,10.4-4.6-.7-4.4-4.4,1.3-9.1-6.4-.5-3.1-8.1-5.3-2,1.8-4-5.3-3.4-4.5-7.2,12.7-2.4,1.8-3,4.5.9-3.1-5.1,3.3-4.3-4.4-6.2v-6.2l4.1-1.7,7.6-13.8,4.7,1.3,5.1-2,4.6,4.6,6.7-1.1,2.5-3.5,4.3.8-.5,5,1.8-.7h0ZM174.7,787.5h.1-.1ZM173.8,789.2v-.2.2ZM166.3,799.8h.2-.2ZM169.2,799.8h.2-.2ZM157.2,840.3v-.2.2ZM154.6,852.8l-.2-.7.2.7ZM153.1,853.5v-.2h.2l-.2.2ZM153.3,855v-.4.4ZM152.7,856.3v-.4.4Z"/>
    <path class="st5" d="M77.2,956.5l1.4-5.2,6.6-5.3-7.4,9.4-.6,1.1ZM76.1,957l.3-1.1-.3,1.1ZM78.6,958.5h.9-.9ZM77.8,965l-2.6-2.6,2.3-2,.9,4.4-.6.2ZM76.9,967l.3-.2-.3.2ZM97.6,985l-.3-2.9,7.4-5.5,1.5-7.5,5.4,2.9,1.7,9.6-8.3,12.4h-8l.3,3.2-2.6-.3,2.6,3.4-5.2,3.6-5.7-2.1,1.7,3.4-9.5,4.9v3.7l-7.4-1.9-4,3.2,8.6,9.8.3,3.6-5.2-5.2-2.6,1.3.9,1.8-2.9,1.1-5.4,10.1,1.7,3.6,4.3-2.1.9,2.3-9.8,8.1-6.3,1-.9-6.5,2.1-.7-2.3-.3-.9-4.4,3.4-1-.5-3.9,8.6-6.7-4.6-13.5,2.3,2.1,3.1-2.6,2.6,1,4.3-7,6.9-1.3,6-6.5-8.3-2.8-1.4-10.7,12,2.6-2.6,3.7,4,2.3,9.5-3.1-2-3.1,3.7-2.6.9-.5ZM114.2,982.2l-.6-.3h.3l.3.3ZM65.5,986.3l-4.9-.6-.3-2.3,5.2-.8,2,3.1-2,.6ZM85.2,987.3l-.5-2.1.8,1.8-.3.3ZM86.4,992.5l-3.7-2.6,2.3-1,1.4,2.8v.8ZM92.7,990.5l.3-.2-.3.2ZM70.6,994l.3-2.5v1.8l-.3.7ZM66.6,992.5l-.3-.5.3.5ZM86.1,993.5l.3-.2-.3.2ZM82.9,1019.6l.6-1.6-.6,1.6ZM77.2,1024.9l5.2-5.2.5,1.8-5.1,2.6-.6.8ZM68.9,1024.4l2.3.5-2.6-.3.3-.2ZM79.5,1027.3l-.9-2.1.9,1.6v.5ZM76.9,1026.8l-.5-1,.5,1ZM82.4,1028.3l.5-.3-.5.3ZM41.1,1031.9l.3-.3-.3.3ZM44.3,1032.4l-.3-.3.3-.5v.8ZM44.5,1032.2v-.2h.3l-.3.2ZM78.1,1033.9l-.6-2,.6,1.5v.5ZM72.6,1043.3l2.3-1.9-2.3,1.9ZM62.3,1045.8l.3-.5-.3.5Z"/>
    <circle class="st6" cx="137.3" cy="792" r="13"/>
    <text class="st7" transform="translate(129.9 801)"><tspan x="0" y="0">8</tspan></text>
  </g>
  <rect class="st4" x="112.2" y="944.3" width="150" height="150" rx="6" ry="6"/>
  <path class="st3" d="M190.2,973.5l1.4-5.2,6.6-5.3-7.4,9.4-.6,1.1ZM189.1,974l.3-1.1-.3,1.1ZM191.6,975.5h.9-.9ZM190.8,982l-2.6-2.6,2.3-2,.9,4.4-.6.2ZM189.9,984l.3-.2-.3.2ZM210.6,1002l-.3-2.9,7.4-5.5,1.5-7.5,5.4,2.9,1.7,9.6-8.3,12.4h-8l.3,3.2-2.6-.3,2.6,3.4-5.2,3.6-5.7-2.1,1.7,3.4-9.5,4.9v3.7l-7.4-1.9-4,3.2,8.6,9.8.3,3.6-5.2-5.2-2.6,1.3.9,1.8-2.9,1.1-5.4,10.1,1.7,3.6,4.3-2.1.9,2.3-9.8,8.1-6.3,1-.9-6.5,2.1-.7-2.3-.3-.9-4.4,3.4-1-.5-3.9,8.6-6.7-4.6-13.5,2.3,2.1,3.1-2.6,2.6,1,4.3-7,6.9-1.3,6-6.5-8.3-2.8-1.4-10.7,12,2.6-2.6,3.7,4,2.3,9.5-3.1-2-3.1,3.7-2.6.9-.5ZM227.2,999.2l-.6-.3h.3l.3.3ZM178.5,1003.3l-4.9-.6-.3-2.3,5.2-.8,2,3.1-2,.6ZM198.2,1004.3l-.5-2.1.8,1.8-.3.3ZM199.4,1009.5l-3.7-2.6,2.3-1,1.4,2.8v.8ZM205.7,1007.5l.3-.2-.3.2ZM183.6,1011l.3-2.5v1.8l-.3.7ZM179.6,1009.5l-.3-.5.3.5ZM199.1,1010.5l.3-.2-.3.2ZM195.9,1036.6l.6-1.6-.6,1.6ZM190.2,1041.9l5.2-5.2.5,1.8-5.1,2.6-.6.8ZM181.9,1041.4l2.3.5-2.6-.3.3-.2ZM192.5,1044.3l-.9-2.1.9,1.6v.5ZM189.9,1043.8l-.5-1,.5,1ZM195.4,1045.3l.5-.3-.5.3ZM154.1,1048.9l.3-.3-.3.3ZM157.3,1049.4l-.3-.3.3-.5v.8ZM157.5,1049.2v-.2h.3l-.3.2ZM191.1,1050.9l-.6-2,.6,1.5v.5ZM185.6,1060.3l2.3-1.9-2.3,1.9ZM175.3,1062.8l.3-.5-.3.5Z"/>
</svg>