<?xml version="1.0" encoding="UTF-8"?>
<svg id="_3col-2" xmlns="http://www.w3.org/2000/svg" version="1.1" viewBox="0 0 950 1000.8">
  <!-- Generator: Adobe Illustrator 30.5.1, SVG Export Plug-In . SVG Version: 2.1.4 Build 3)  -->
  <defs>
    <style>
      .st0 {
        fill: #0d9488;
      }
    </style>
  </defs>
  <path class="st0" d="M662.4,985.6v-22.7h33.3v-48.1c0-17.9,5-34.2,15.1-48.8s23.5-25.2,40.1-31.8c-16.7-6.8-30-17.5-40.1-32.2-10.1-14.6-15.1-30.9-15.1-48.8v-47.7h-33.3v-22.7h242.3v22.7h-33.3v47.7c0,17.9-5,34.2-15.1,48.8s-23.5,25.4-40.1,32.2c3,1.3,6.4,2.8,10,4.7s6.8,3.8,9.3,5.9c-2.5,1.3-5.5,3.1-9.1,5.5-3.5,2.4-7.1,5.1-10.6,8.1-4.8-2.8-9.9-4.9-15.3-6.2s-11-2.1-16.8-2.1c-18.2,0-33.6,6.2-46.2,18.7s-18.9,27.8-18.9,46v48.1h71.5c1.8,4.3,3.7,8.3,5.7,11.9s4.4,7.3,7.2,10.8h-140.4ZM829.7,799.4c12.6-12.6,18.9-28,18.9-46.2v-47.7h-130.2v47.7c0,18.2,6.3,33.6,18.9,46.2s28,18.9,46.2,18.9,33.6-6.3,46.2-18.9h0ZM827.4,979.8c-14.1-14-21.2-30.9-21.2-50.7s7.1-36.8,21.2-51,31-21.2,50.7-21.2,36.6,7,50.7,21.2c14.1,14.1,21.2,31.2,21.2,51.2s-7.1,36.7-21.2,50.6c-14.1,14-31,20.9-50.7,20.9s-36.6-7-50.7-21h0ZM867.9,961.1l53.4-53.8-10.6-10.6-42.8,43.2-22.3-22.7-10.6,11,32.9,32.9Z"/>
  <g>
    <g>
      <g>
        <path class="st0" d="M465.9,433.1c48.7,0,88.3,39.6,88.3,88.3v17.2c0,48.7-39.6,88.3-88.3,88.3H113.3c-48.7,0-88.3-39.6-88.3-88.3v-17.2c0-48.7,39.6-88.3,88.3-88.3h352.5M465.9,408.1H113.3c-62.6,0-113.3,50.7-113.3,113.3v17.2c0,62.6,50.7,113.3,113.3,113.3h352.5c62.6,0,113.3-50.7,113.3-113.3v-17.2c0-62.6-50.7-113.3-113.3-113.3h0Z"/>
        <g>
          <path class="st0" d="M143.9,529.7c0,7.9-6.3,14.2-14.2,14.2s-14.2-6.3-14.2-14.2,6.3-14.2,14.2-14.2,14.2,6.6,14.2,14.2Z"/>
          <path class="st0" d="M223.9,529.7c0,7.9-6.3,14.2-14.2,14.2s-14.2-6.3-14.2-14.2,6.3-14.2,14.2-14.2,14.2,6.6,14.2,14.2Z"/>
          <path class="st0" d="M303.8,529.7c0,7.9-6.3,14.2-14.2,14.2s-14.2-6.3-14.2-14.2,6.3-14.2,14.2-14.2,14.2,6.6,14.2,14.2Z"/>
          <path class="st0" d="M383.7,529.7c0,7.9-6.3,14.2-14.2,14.2s-14.2-6.3-14.2-14.2,6.3-14.2,14.2-14.2,14.2,6.6,14.2,14.2Z"/>
          <path class="st0" d="M463.7,529.7c0,7.9-6.3,14.2-14.2,14.2s-14.2-6.3-14.2-14.2,6.3-14.2,14.2-14.2,14.2,6.6,14.2,14.2Z"/>
        </g>
      </g>
      <polygon class="st0" points="565.4 782.6 492.4 707.7 471.1 773.8 419.9 598.7 590.6 651.3 526.1 673.2 599.1 748 565.4 782.6"/>
    </g>
    <g>
      <g>
        <path class="st0" d="M717.7,25c35.2,0,68.4,13.7,93.3,38.7,24.9,24.9,38.7,58.1,38.7,93.3v23.8c0,35.2-13.7,68.4-38.7,93.3-24.9,24.9-58.1,38.6-93.3,38.6H229.5c-35.2,0-68.4-13.7-93.3-38.6-24.9-24.9-38.7-58.1-38.7-93.3v-23.8c0-35.2,13.7-68.4,38.6-93.3,24.9-24.9,58.1-38.7,93.3-38.7h488.2M717.7,0H229.5C142.8,0,72.5,70.3,72.5,157v23.8c0,86.7,70.3,156.9,156.9,156.9h488.2c86.7,0,157-70.3,157-156.9v-23.8C874.7,70.3,804.4,0,717.7,0h0Z"/>
        <g>
          <path class="st0" d="M271.8,168.4c0,10.9-8.8,19.7-19.7,19.7s-19.7-8.8-19.7-19.7,8.8-19.7,19.7-19.7,19.7,9.2,19.7,19.7Z"/>
          <path class="st0" d="M382.5,168.4c0,10.9-8.8,19.7-19.7,19.7s-19.7-8.8-19.7-19.7,8.8-19.7,19.7-19.7,19.7,9.2,19.7,19.7Z"/>
          <path class="st0" d="M493.3,168.4c0,10.9-8.8,19.7-19.7,19.7s-19.7-8.8-19.7-19.7,8.8-19.7,19.7-19.7,19.7,9.2,19.7,19.7Z"/>
          <path class="st0" d="M604,168.4c0,10.9-8.8,19.7-19.7,19.7s-19.7-8.8-19.7-19.7,8.8-19.7,19.7-19.7,19.7,9.2,19.7,19.7Z"/>
          <path class="st0" d="M714.7,168.4c0,10.9-8.8,19.7-19.7,19.7s-19.7-8.8-19.7-19.7,8.8-19.7,19.7-19.7,19.7,9.2,19.7,19.7Z"/>
        </g>
      </g>
      <path class="st0" d="M781.4,359.6l-41.8,18.7-52.7-119.2c-7.7-17.3-28-25.3-45.3-17.6h0c-17.6,7.7-25.3,28-17.6,45.3l97.2,219.7-61,5.8c-15.7,1.4-28.8,11.5-34.6,26.1l-4.9,12.4,129.1,49.7c10.2,3.8,21.4,3.6,31.6-.8l132.4-58.5c18.4-8.2,28.3-28.6,23.1-48.1l-25.3-98.6c-4.4-17-20-29.7-37.9-30.5l-92.3-4.4h0Z"/>
    </g>
  </g>
</svg>