<?xml version="1.0" encoding="UTF-8"?>
<svg id="_3col-1" xmlns="http://www.w3.org/2000/svg" version="1.1" viewBox="0 0 857.8 1000.5">
  <!-- Generator: Adobe Illustrator 30.5.1, SVG Export Plug-In . SVG Version: 2.1.4 Build 3)  -->
  <defs>
    <style>
      .st0 {
        fill: #0d9488;
      }
    </style>
  </defs>
  <g>
    <path class="st0" d="M851.4,736.5l-19.5-19.5v-119.3h-119.3l-55.8-55.8h175v-47.1h-222.1l-25.9-25.9h248.1c6.9,0,13,2.6,18.2,7.8s7.8,11.2,7.8,18.1v224.8c0,3.1-.6,6.1-1.7,9-1.2,2.9-2.7,5.5-4.8,7.8h0ZM638.3,597.7h-100.3v121.9h222.1l-121.9-121.9h0ZM828.9,788.3l-42.8-42.8h-248.1c-6.9,0-13-2.6-18.2-7.8-5.2-5.2-7.8-11.2-7.8-18.2v-224.7c0-6.9,2.6-13,7.8-18.1,5.2-5.2,11.2-7.8,18.2-7.8h8.6l25.9,25.9h-34.6v47.1h44.5l-93.8-93.8,18.6-18.6,340.1,340.1-18.6,18.6h0Z"/>
    <path class="st0" d="M372,944.5v36.7h-119.2v-243.1h175.8c1.7,0,3.5.2,5.3.5,1.8.3,3.6.8,5.2,1.5l133.1,50.1c14.5,5.3,26.8,14,36.9,25.7,9.9,11.6,14.7,24.7,14.7,40v6h60.9c19.2,0,35.1,6.8,48.5,20.7,13.5,14,20,30.2,20,49.5v11.4l-185,56.8-196.3-56h0ZM372,918.5l193.4,56.7,157.3-49.5v-4.4c0-9.9-3.9-18.3-11.5-25-7.4-6.4-16.2-9.7-26.2-9.7h-127.5c-6.2,0-12.3-.5-18.3-1.5-6-1-11.9-2.4-17.7-4.3l-53-16,8-25.6,51.5,17.5c4.8,1.7,9.7,3,14.7,3.9,5,.9,10,1.3,14.8,1.3h40.2v-6c0-10-3.4-18.9-10.1-26.3-6.3-7-14-12.3-23-15.9l-134.1-51.1h-58.4v155.7h0ZM277.5,956.6h69.4v-193.8h-69.4v193.8Z"/>
  </g>
  <path class="st0" d="M270.5,465.3c11.7-.9,23.5-2.9,35.1-5.9,11.7-3,23.1-6.9,34-11.7l16.9,29.4c-13.5,6.2-27.6,11.2-41.8,14.7s-29.1,6-44.2,7.3v-33.8h0ZM228.7,499.1c-15.1-1.3-29.9-3.8-44.2-7.3-14.2-3.6-28.3-8.5-41.8-14.7l16.9-29.4c10.9,4.7,22.3,8.7,34,11.7,11.6,3,23.4,5,35.1,5.9v33.8h0ZM375.9,426.8c10-6.9,19.3-14.7,27.8-23.2s16.2-17.8,23.2-27.8l30,17c-8.5,12.6-18.1,24.4-28.8,35.1-10.7,10.7-22.5,20.4-35.1,28.9l-17-30h0ZM106.3,456.8c-12.6-8.8-24.6-18.7-35.5-29.5-10.9-10.7-20.7-22.5-29.2-35.1l30-17c6.9,10,14.8,19.5,23.5,28.1s18.1,16.5,28.1,23.5l-16.9,29.9h0ZM447.7,339.6c4.7-10.9,8.7-22.3,11.7-34,3-11.6,5-23.4,5.9-35.1h33.8c-1.3,15.1-3.8,29.9-7.3,44.2-3.6,14.2-8.5,28.3-14.7,41.8l-29.4-16.9h0ZM232.7,256.3v-124.6h33.9v111.1l90,90-23.7,23.7-100.2-100.2h0ZM21.5,355.9c-5.8-13.5-10.6-27.6-14.2-41.8-3.6-14.3-6-28.9-7.3-43.6h33.8c.9,11.7,3,23.4,6.2,34.8,3.2,11.4,7,22.7,11.4,33.6l-30,17ZM465.3,228.6c-.9-12.1-3-24-6.2-35.4-3.2-11.4-7.2-22.7-12-33.6l30-17c6.6,13.5,11.6,27.6,15,41.8,3.4,14.3,5.7,29.2,7,44.2h-33.8ZM0,228.6c1.3-15.1,3.8-29.9,7.3-44.2,3.6-14.2,8.5-28.3,14.7-41.8l29.4,16.9c-4.7,10.9-8.7,22.3-11.7,34-3,11.6-5,23.4-5.9,35.1H0h0ZM42.3,106.3c8.5-12.6,18.2-24.4,28.9-35.1s22.5-20.4,35.1-28.8l17,30c-10,6.9-19.4,14.7-28.1,23.2-8.7,8.5-16.6,17.8-23.5,27.8l-29.4-16.9h0ZM426.8,123.3c-6.9-10-14.7-19.3-23.2-27.8s-17.8-16.2-27.8-23.2l17-30c12.6,8.4,24.3,18.1,34.8,28.8,10.5,10.7,20.1,22.5,28.6,35.2l-29.4,16.9h0ZM339.6,51.4c-10.9-4.7-22.3-8.7-34-11.7-11.6-3-23.4-5-35.1-5.9V0c15.1,1.3,29.9,3.7,44.2,7,14.2,3.4,28.3,8.4,41.8,15l-17,29.4h0ZM142.6,22.1c13.5-6.2,27.6-11.2,41.8-14.7,14.3-3.6,29.1-6,44.2-7.3v33.8c-11.7.9-23.5,2.9-35.1,5.9-11.7,3-23.1,6.9-34,11.7l-16.9-29.4h0Z"/>
</svg>